<?xml version="1.0" encoding="utf-8"?>
<!-- Generator: Adobe Illustrator 23.0.6, SVG Export Plug-In . SVG Version: 6.00 Build 0)  -->
<svg version="1.1" id="Layer_1" xmlns="http://www.w3.org/2000/svg" xmlns:xlink="http://www.w3.org/1999/xlink" x="0px" y="0px"
	 viewBox="0 0 11.22 11.23" style="enable-background:new 0 0 11.22 11.23;" xml:space="preserve">
<style type="text/css">
	.st0{fill:#61C0BB;}
</style>
<path class="st0" d="M10.91,7.93L8.45,6.88C8.23,6.79,7.98,6.85,7.84,7.03L6.75,8.36c-1.71-0.8-3.08-2.18-3.89-3.88l1.33-1.09
	c0.18-0.15,0.24-0.4,0.15-0.61L3.29,0.32c-0.1-0.23-0.36-0.36-0.6-0.3L0.41,0.54C0.17,0.6,0,0.81,0,1.05
	c0,5.62,4.56,10.17,10.17,10.17c0.24,0,0.46-0.17,0.51-0.41l0.53-2.28C11.27,8.29,11.14,8.03,10.91,7.93"/>
</svg>
