<?xml version="1.0" encoding="utf-8"?>
<!-- Generator: Adobe Illustrator 23.0.6, SVG Export Plug-In . SVG Version: 6.00 Build 0)  -->
<svg version="1.1" id="Layer_1" xmlns="http://www.w3.org/2000/svg" xmlns:xlink="http://www.w3.org/1999/xlink" x="0px" y="0px"
	 viewBox="0 0 250 250" style="enable-background:new 0 0 250 250;" xml:space="preserve">
<style type="text/css">
	.st0{fill:#FFFFFF;}
	.st1{fill:#010101;}
	.st2{fill:#D61249;}
	.st3{fill:#EE7726;}
	.st4{fill:#FFD003;}
	.st5{fill:#1B5466;}
</style>
<g>
	<path class="st2" d="M199.01,59.47c5.31,17.55,8.57,32.96,10.23,46.35c1.62,13.49,1.62,24.98,0.39,34.82
		c-1.3,9.84-3.84,18-7.31,24.73c-1.74,3.38-3.7,6.41-5.85,9.13c-2.18,2.68-4.53,5.06-7,7.13c-2.48,2.06-5.09,3.85-7.78,5.37
		c-2.73,1.5-5.54,2.75-8.38,3.77c-5.81,2.09-11.86,3.1-17.64,3.47c-5.8,0.37-11.35,0.06-16.23-0.53c-4.83-0.57-9.02-1.41-12.06-2.13
		c-3.08-0.76-4.98-1.39-5.31-1.47c13.3,10.61,26.02,17.75,37.88,21.96c11.88,4.19,22.93,5.39,32.89,4.19
		c9.95-1.22,18.79-4.88,26.3-10.47c7.52-5.57,13.71-13.09,18.27-22.01c2.56-5.01,4.65-10.44,6.19-16.23
		c1.52-5.79,2.5-11.93,2.95-18.32c0.37-6.44,0.19-13.09-0.6-19.96c-0.81-6.84-2.26-13.84-4.37-20.94
		c-4.46-15.04-10.61-29.2-17.32-42c-6.75-12.79-14.03-24.22-20.87-33.84c-6.84-9.63-13.2-17.43-17.98-23.01
		c-4.79-5.57-7.99-8.91-8.6-9.49C186.45,22.18,193.72,41.91,199.01,59.47"/>
	<path class="st3" d="M130.25,40.3c-5.59,0.28-11.38,1.22-17.2,2.8c-5.79,1.58-11.67,3.81-17.46,6.64
		c-5.76,2.89-11.52,6.36-17.06,10.46c-5.58,4.13-10.98,8.87-16.1,14.25C51.53,85.81,42.26,98.2,34.48,110.37
		c-7.78,12.17-14.11,24.17-19.07,34.86c-4.99,10.71-8.62,20.06-11.09,26.95c-2.46,6.9-3.72,11.34-3.97,12.13
		c14.49-19.37,28.07-35.5,40.74-48.84c12.65-13.32,24.42-23.84,35.31-31.97c10.92-8.14,20.95-13.88,30.16-17.69
		c9.27-3.85,17.64-5.74,25.24-6.15c3.83-0.19,7.45,0,10.86,0.52c3.45,0.48,6.68,1.33,9.73,2.4c3.04,1.11,5.88,2.47,8.59,4.05
		c2.64,1.58,5.14,3.36,7.43,5.29c4.75,3.98,8.68,8.67,11.85,13.45c3.24,4.8,5.74,9.75,7.68,14.22c1.91,4.45,3.26,8.51,4.18,11.47
		c0.87,3,1.29,4.94,1.37,5.35c2.6-16.8,2.44-31.32,0.17-43.65c-2.3-12.29-6.74-22.38-12.74-30.32
		c-6.03-7.98-13.66-13.77-22.29-17.45c-7.52-3.18-15.83-4.79-24.54-4.79C132.81,40.2,131.53,40.23,130.25,40.3"/>
	<path class="st4" d="M73.18,121.62c-9.56,8.12-16.17,17.01-20.09,26.14c-3.9,9.2-5.14,18.62-4.03,27.9
		c1.1,9.25,4.58,18.32,10.06,26.71c3.08,4.69,6.79,9.21,11.06,13.42c4.29,4.22,9.15,8.11,14.55,11.68
		c5.38,3.55,11.31,6.72,17.67,9.46c6.36,2.75,13.17,5,20.45,6.71c15.35,3.69,30.76,5.51,45.25,6.09
		c14.53,0.63,28.17,0.03,39.99-1.01c11.79-1.06,21.79-2.63,29.01-3.95c7.25-1.33,11.75-2.42,12.55-2.63
		c-24.13-2.83-44.98-6.41-62.92-10.65c-17.98-4.22-33.01-9.08-45.54-14.39c-12.56-5.31-22.6-11.05-30.55-17.07
		c-7.93-6.02-13.82-12.3-17.95-18.63c-2.08-3.18-3.71-6.41-5.01-9.61c-1.24-3.23-2.12-6.39-2.72-9.57
		c-0.57-3.14-0.81-6.28-0.75-9.39c0.03-3.08,0.32-6.1,0.85-9.05c1.12-6.07,3.26-11.78,5.81-16.96c2.58-5.17,5.64-9.78,8.57-13.68
		c2.94-3.88,5.76-7.05,7.93-9.3c2.19-2.26,3.66-3.61,3.95-3.87C95.4,106.13,82.79,113.51,73.18,121.62"/>
</g>
</svg>
