<?xml version="1.0" encoding="utf-8"?>
<!-- Generator: Adobe Illustrator 23.0.6, SVG Export Plug-In . SVG Version: 6.00 Build 0)  -->
<svg version="1.1" id="Layer_1" xmlns="http://www.w3.org/2000/svg" xmlns:xlink="http://www.w3.org/1999/xlink" x="0px" y="0px"
	 viewBox="0 0 717.97 132.18" style="enable-background:new 0 0 717.97 132.18;" xml:space="preserve">
<style type="text/css">
	.st0{fill:#FFFFFF;}
	.st1{fill:#010101;}
	.st2{fill:#D61249;}
	.st3{fill:#EE7726;}
	.st4{fill:#FFD003;}
	.st5{fill:#1B5466;}
</style>
<g>
	<path class="st2" d="M140.54,27c1.96,6.49,3.17,12.18,3.78,17.13c0.6,4.98,0.6,9.23,0.14,12.87c-0.48,3.64-1.42,6.65-2.7,9.14
		c-0.64,1.25-1.37,2.37-2.16,3.37c-0.81,0.99-1.67,1.87-2.59,2.63c-0.92,0.76-1.88,1.42-2.88,1.98c-1.01,0.56-2.05,1.02-3.1,1.39
		c-2.15,0.77-4.38,1.15-6.52,1.28c-2.14,0.14-4.2,0.02-6-0.2c-1.78-0.21-3.33-0.52-4.46-0.79c-1.14-0.28-1.84-0.51-1.96-0.54
		c4.92,3.92,9.62,6.56,14,8.12c4.39,1.55,8.48,1.99,12.15,1.55c3.68-0.45,6.94-1.8,9.72-3.87c2.78-2.06,5.07-4.84,6.75-8.14
		c0.95-1.85,1.72-3.86,2.29-6c0.56-2.14,0.93-4.41,1.09-6.77c0.14-2.38,0.07-4.84-0.22-7.38c-0.3-2.53-0.83-5.12-1.62-7.74
		c-1.65-5.56-3.92-10.79-6.4-15.52c-2.5-4.73-5.19-8.95-7.71-12.51c-2.53-3.56-4.88-6.44-6.65-8.5c-1.77-2.06-2.95-3.29-3.18-3.51
		C135.9,13.22,138.59,20.51,140.54,27"/>
	<path class="st3" d="M115.13,19.92c-2.07,0.1-4.21,0.45-6.36,1.04c-2.14,0.58-4.31,1.41-6.45,2.45c-2.13,1.07-4.26,2.35-6.31,3.87
		c-2.06,1.53-4.06,3.28-5.95,5.27c-4.02,4.2-7.45,8.78-10.33,13.27c-2.88,4.5-5.22,8.93-7.05,12.88c-1.84,3.96-3.19,7.41-4.1,9.96
		c-0.91,2.55-1.38,4.19-1.47,4.48c5.36-7.16,10.37-13.12,15.06-18.05c4.68-4.92,9.03-8.81,13.05-11.81
		c4.03-3.01,7.74-5.13,11.14-6.54c3.43-1.42,6.52-2.12,9.33-2.27c1.42-0.07,2.75,0,4.01,0.19c1.28,0.18,2.47,0.49,3.6,0.89
		c1.12,0.41,2.17,0.91,3.17,1.5c0.98,0.58,1.9,1.24,2.75,1.95c1.76,1.47,3.21,3.21,4.38,4.97c1.2,1.77,2.12,3.6,2.84,5.26
		c0.71,1.65,1.2,3.14,1.54,4.24c0.32,1.11,0.48,1.83,0.51,1.98c0.96-6.21,0.9-11.58,0.06-16.13c-0.85-4.54-2.49-8.27-4.71-11.21
		c-2.23-2.95-5.05-5.09-8.24-6.45c-2.78-1.17-5.85-1.77-9.07-1.77C116.08,19.88,115.6,19.89,115.13,19.92"/>
	<path class="st4" d="M94.04,49.98c-3.53,3-5.98,6.29-7.43,9.66c-1.44,3.4-1.9,6.88-1.49,10.31c0.41,3.42,1.69,6.77,3.72,9.87
		c1.14,1.73,2.51,3.41,4.09,4.96c1.58,1.56,3.38,3,5.38,4.32c1.99,1.31,4.18,2.48,6.53,3.5c2.35,1.02,4.87,1.85,7.56,2.48
		c5.67,1.37,11.37,2.04,16.72,2.25c5.37,0.23,10.41,0.01,14.78-0.37c4.36-0.39,8.05-0.97,10.72-1.46c2.68-0.49,4.34-0.89,4.64-0.97
		c-8.92-1.05-16.62-2.37-23.25-3.94c-6.65-1.56-12.2-3.36-16.83-5.32c-4.64-1.96-8.35-4.08-11.29-6.31
		c-2.93-2.22-5.11-4.54-6.63-6.89c-0.77-1.18-1.37-2.37-1.85-3.55c-0.46-1.19-0.78-2.36-1.01-3.54c-0.21-1.16-0.3-2.32-0.28-3.47
		c0.01-1.14,0.12-2.25,0.32-3.35c0.41-2.24,1.21-4.36,2.15-6.27c0.95-1.91,2.09-3.61,3.17-5.05c1.09-1.44,2.13-2.6,2.93-3.44
		c0.81-0.84,1.35-1.34,1.46-1.43C102.25,44.25,97.59,46.98,94.04,49.98"/>
	<path class="st5" d="M72.15,80.4V93.5H15.9C7.1,93.5,0,86.47,0,77.72V38.86c0-8.75,7.1-15.8,15.9-15.8h56v13.12h-56
		c-1.46,0-2.69,1.21-2.69,2.68v38.86c0,1.46,1.23,2.68,2.69,2.68H72.15z"/>
	<path class="st5" d="M238.42,0v93.5h-56.25c-8.8,0-15.9-7.04-15.9-15.78V38.86c0-8.75,7.1-15.8,15.9-15.8h43.05V0H238.42z
		 M222.52,80.4c1.46,0,2.69-1.21,2.69-2.68V38.86c0-1.47-1.23-2.68-2.69-2.68h-40.36c-1.46,0-2.68,1.21-2.68,2.68v38.86
		c0,1.46,1.22,2.68,2.68,2.68H222.52z"/>
	<path class="st5" d="M320.76,23.06v54.66c0,8.75-7.09,15.78-15.9,15.78H264.5c-8.8,0-15.89-7.04-15.89-15.78V23.06h13.21v54.66
		c0,1.47,1.23,2.68,2.69,2.68h40.36c1.47,0,2.69-1.21,2.69-2.68V23.06H320.76z"/>
	<path class="st5" d="M389.03,23.06v13.12h-39.62c-1.46,0-2.68,1.21-2.68,2.68v54.64h-13.21V38.86c0-8.75,7.09-15.8,15.89-15.8
		H389.03z"/>
	<path class="st5" d="M468.93,38.86V93.5h-56.26c-8.8,0-15.89-7.04-15.89-15.78V51.73h58.94V38.86c0-1.47-1.23-2.68-2.69-2.68
		h-56.25V23.06h56.25C461.83,23.06,468.93,30.1,468.93,38.86 M455.72,64.84h-45.73v12.88c0,1.47,1.22,2.68,2.68,2.68h43.05V64.84z"
		/>
	<path class="st5" d="M551.64,38.86v54.64h-13.21V38.86c0-1.47-1.22-2.68-2.69-2.68h-40.36c-1.47,0-2.69,1.21-2.69,2.68v54.64
		h-13.21V23.06h56.26C544.54,23.06,551.64,30.1,551.64,38.86"/>
	<path class="st5" d="M634.46,80.4V93.5H578.2c-8.8,0-15.9-7.04-15.9-15.78V38.86c0-8.76,7.1-15.8,15.9-15.8h56.01v13.12H578.2
		c-1.46,0-2.69,1.21-2.69,2.68v38.86c0,1.46,1.23,2.68,2.69,2.68H634.46z"/>
	<path class="st5" d="M717.66,38.86v25.98h-58.95v12.88c0,1.46,1.23,2.68,2.69,2.68h56.25V93.5H661.4c-8.8,0-15.9-7.04-15.9-15.78
		V38.86c0-8.76,7.1-15.8,15.9-15.8h40.36C710.56,23.06,717.66,30.1,717.66,38.86 M704.44,51.73V38.86c0-1.47-1.22-2.68-2.68-2.68
		H661.4c-1.46,0-2.69,1.21-2.69,2.68v12.87H704.44z"/>
	<path class="st5" d="M18.35,128.86v3.32H4.04c-2.25,0-4.04-1.79-4.04-4.01v-9.85c0-2.23,1.8-4.01,4.04-4.01h14.24v3.33H4.04
		c-0.37,0-0.68,0.31-0.68,0.69v9.85c0,0.38,0.31,0.69,0.68,0.69H18.35z"/>
	<path class="st5" d="M69.94,114.31v3.33H59.86c-0.37,0-0.68,0.31-0.68,0.69v13.86h-3.36v-13.86c0-2.23,1.8-4.01,4.04-4.01H69.94z"
		/>
	<path class="st5" d="M124.41,118.33v13.86H110.1c-2.24,0-4.04-1.79-4.04-4.01v-6.59h14.99v-3.26c0-0.38-0.3-0.69-0.68-0.69h-14.3
		v-3.33h14.3C122.61,114.31,124.41,116.09,124.41,118.33 M121.05,124.93h-11.63v3.25c0,0.38,0.31,0.69,0.68,0.69h10.95V124.93z"/>
	<path class="st5" d="M165.21,112.46v1.85h7.4v3.33h-7.4v14.54h-3.37v-19.72c0-2.21,1.81-4.01,4.05-4.01h6.71v3.34h-6.71
		C165.52,111.79,165.21,112.1,165.21,112.46"/>
	<path class="st5" d="M212.03,117.64v10.54c0,0.38,0.31,0.69,0.68,0.69h6.71v3.32h-6.71c-2.24,0-4.04-1.79-4.04-4.01v-19.72h3.36
		v5.86h7.39v3.33H212.03z"/>
	<path class="st5" d="M318.29,118.33v13.85h-14.31c-2.23,0-4.05-1.79-4.05-4v-6.59h15v-3.26c0-0.38-0.32-0.69-0.69-0.69h-14.32
		v-3.33h14.32C316.49,114.31,318.29,116.09,318.29,118.33 M314.94,124.93H303.3v3.25c0,0.38,0.32,0.69,0.68,0.69h10.96V124.93z"/>
	<path class="st5" d="M359.09,117.64v10.54c0,0.38,0.3,0.69,0.68,0.69h6.72v3.32h-6.72c-2.25,0-4.04-1.79-4.04-4.01v-19.72h3.37
		v5.86h7.4v3.33H359.09z"/>
	<path class="st5" d="M464.2,118.33v13.85h-3.35v-13.85c0-0.38-0.32-0.69-0.7-0.69h-10.26c-0.38,0-0.69,0.31-0.69,0.69v13.85h-3.35
		v-23.73h3.35v5.86h10.95C462.37,114.31,464.2,116.09,464.2,118.33"/>
	<path class="st5" d="M530.44,118.33v6.6h-14.99v3.25c0,0.38,0.3,0.69,0.67,0.69h14.32v3.32h-14.32c-2.24,0-4.03-1.79-4.03-4.01
		v-9.85c0-2.23,1.8-4.01,4.03-4.01h10.28C528.64,114.31,530.44,116.09,530.44,118.33 M527.09,121.59v-3.26
		c0-0.38-0.31-0.69-0.68-0.69h-10.28c-0.38,0-0.67,0.31-0.67,0.69v3.26H527.09z"/>
	<path class="st5" d="M597.54,118.33v13.85h-14.32c-2.22,0-4.03-1.79-4.03-4v-6.59h15.01v-3.26c0-0.38-0.31-0.69-0.7-0.69h-14.31
		v-3.33h14.31C595.76,114.31,597.54,116.09,597.54,118.33 M594.2,124.93h-11.66v3.25c0,0.38,0.32,0.69,0.68,0.69h10.97V124.93z"/>
	<path class="st5" d="M659.84,114.31v3.33h-10.08c-0.39,0-0.68,0.31-0.68,0.69v13.85h-3.36v-13.85c0-2.23,1.8-4.01,4.05-4.01H659.84
		z"/>
	<path class="st5" d="M710.58,117.64v10.54c0,0.38,0.31,0.69,0.68,0.69h6.72v3.32h-6.72c-2.24,0-4.04-1.79-4.04-4.01v-19.72h3.36
		v5.86h7.4v3.33H710.58z"/>
</g>
</svg>
