<?xml version="1.0" encoding="utf-8"?>
<!-- Generator: Adobe Illustrator 23.1.1, SVG Export Plug-In . SVG Version: 6.00 Build 0)  -->
<svg version="1.1" id="Layer_1" xmlns="http://www.w3.org/2000/svg" xmlns:xlink="http://www.w3.org/1999/xlink" x="0px" y="0px"
	 viewBox="0 0 11.2 11.2" style="enable-background:new 0 0 11.2 11.2;" xml:space="preserve">
<style type="text/css">
	.st0{fill:#0E0E0E;}
</style>
<path class="st0" d="M10.9,7.9l-2.5-1C8.2,6.8,8,6.8,7.8,7L6.8,8.4C5,7.6,3.7,6.2,2.9,4.5l1.3-1.1C4.4,3.2,4.4,3,4.3,2.8L3.3,0.3
	C3.2,0.1,2.9,0,2.7,0L0.4,0.5C0.2,0.6,0,0.8,0,1c0,5.6,4.6,10.2,10.2,10.2c0.2,0,0.5-0.2,0.5-0.4l0.5-2.3C11.3,8.3,11.1,8,10.9,7.9"
	/>
</svg>
