<?xml version="1.0" encoding="utf-8"?>
<!-- Generator: Adobe Illustrator 23.1.1, SVG Export Plug-In . SVG Version: 6.00 Build 0)  -->
<svg version="1.1" id="Layer_1" xmlns="http://www.w3.org/2000/svg" xmlns:xlink="http://www.w3.org/1999/xlink" x="0px" y="0px"
	 viewBox="0 0 12.8 9.6" style="enable-background:new 0 0 12.8 9.6;" xml:space="preserve">
<style type="text/css">
	.st0{fill:#0E0E0E;}
</style>
<path class="st0" d="M6.4,6.4c0.6,0,1.4-0.7,1.8-1c3.3-2.4,3.6-2.6,4.3-3.2c0.1-0.1,0.2-0.3,0.2-0.5V1.2c0-0.7-0.5-1.2-1.2-1.2H1.2
	C0.5,0,0,0.5,0,1.2v0.5C0,1.9,0.1,2,0.2,2.1C1,2.7,1.2,3,4.6,5.4C5,5.7,5.8,6.4,6.4,6.4 M12.6,3.2c0.1-0.1,0.2,0,0.2,0.1v5.1
	c0,0.7-0.5,1.2-1.2,1.2H1.2C0.5,9.6,0,9.1,0,8.4V3.3c0-0.1,0.1-0.2,0.2-0.1c0.6,0.4,1.3,1,3.9,2.8c0.5,0.4,1.4,1.2,2.3,1.2
	c0.9,0,1.8-0.8,2.3-1.2C11.3,4.2,12,3.6,12.6,3.2"/>
</svg>
