<svg xmlns="http://www.w3.org/2000/svg" xmlns:xlink="http://www.w3.org/1999/xlink" width="511" height="511" viewBox="0 0 511 511">
  <defs>
    <linearGradient id="linear-gradient" x1="0.5" x2="0.5" y2="1" gradientUnits="objectBoundingBox">
      <stop offset="0" stop-color="#1cd8b4"/>
      <stop offset="1" stop-color="#5557f6"/>
    </linearGradient>
    <linearGradient id="linear-gradient-2" x1="-0.373" y1="1.201" x2="1.312" y2="-0.206" gradientUnits="objectBoundingBox">
      <stop offset="0" stop-color="#2c92e8"/>
      <stop offset="0.128" stop-color="#4e61f4"/>
      <stop offset="1" stop-color="#fb504b"/>
    </linearGradient>
    <clipPath id="clip-path">
      <path id="Path_892" data-name="Path 892" d="M255.5,0C396.609,0,511,114.391,511,255.5S396.609,511,255.5,511,0,396.609,0,255.5,114.391,0,255.5,0Z" transform="translate(-15789 -24702)" fill="url(#linear-gradient)"/>
    </clipPath>
  </defs>
  <g id="Group_2496" data-name="Group 2496" transform="translate(15789 24702)">
    <g id="Group_2491" data-name="Group 2491">
      <path id="Path_897" data-name="Path 897" d="M255.5,0C396.609,0,511,114.391,511,255.5S396.609,511,255.5,511,0,396.609,0,255.5,114.391,0,255.5,0Z" transform="translate(-15789 -24702)" opacity="0.153" fill="url(#linear-gradient-2)"/>
      <g id="Mask_Group_24" data-name="Mask Group 24" opacity="0.397" clip-path="url(#clip-path)">
        <g id="Group_2472" data-name="Group 2472">
          <g id="Group_2466" data-name="Group 2466" transform="matrix(0.883, -0.469, 0.469, 0.883, -15589.218, -24508.832)">
            <path id="Path_833" data-name="Path 833" d="M98.144,189.751c-46.218,0-83.829-39.347-83.829-87.723S51.926,14.315,98.144,14.315c38.957,0,71.7,27.99,81.062,65.734H163.746l25.385,43.976,25.4-43.976H193.931C184.226,34.327,144.992,0,98.144,0,44.033,0,0,45.77,0,102.028S44.033,204.066,98.144,204.066a94.983,94.983,0,0,0,56.679-18.724l-8.475-11.519A80.831,80.831,0,0,1,98.144,189.751Z" transform="translate(0)" fill="#fff"/>
            <path id="Path_834" data-name="Path 834" d="M115.533,0A94.124,94.124,0,0,0,59.464,18.466L67.94,30a79.874,79.874,0,0,1,47.592-15.69c45.76,0,82.98,38.957,82.98,86.845S161.293,188,115.533,188c-38.5,0-70.85-27.6-80.183-64.848H50.781L25.4,79.172,0,123.148H20.614c9.687,45.217,48.527,79.163,94.919,79.163,53.653,0,97.295-45.378,97.295-101.15S169.185,0,115.533,0Z" transform="translate(116.315 0.002)" fill="#fff"/>
          </g>
          <g id="Group_2467" data-name="Group 2467" transform="matrix(0.819, 0.574, -0.574, 0.819, -15723.485, -24496.004)">
            <path id="Path_833-2" data-name="Path 833" d="M48.875,94.494C25.859,94.494,7.129,74.9,7.129,50.809s18.73-43.68,41.746-43.68c19.4,0,35.706,13.939,40.368,32.735h-7.7l12.642,21.9,12.647-21.9H96.576C91.743,17.095,72.2,0,48.875,0,21.928,0,0,22.793,0,50.809s21.928,50.814,48.875,50.814A47.3,47.3,0,0,0,77.1,92.3l-4.22-5.736A40.254,40.254,0,0,1,48.875,94.494Z" transform="translate(0)" fill="#fff"/>
            <path id="Path_834-2" data-name="Path 834" d="M57.534,0A46.872,46.872,0,0,0,29.613,9.2l4.221,5.746a39.777,39.777,0,0,1,23.7-7.813c22.788,0,41.323,19.4,41.323,43.248S80.323,93.62,57.534,93.62c-19.172,0-35.283-13.745-39.931-32.294h7.685l-12.642-21.9L0,61.326H10.266c4.824,22.518,24.166,39.422,47.269,39.422,26.719,0,48.452-22.6,48.452-50.372S84.253,0,57.534,0Z" transform="translate(57.924 0.001)" fill="#fff"/>
          </g>
          <g id="Group_2468" data-name="Group 2468" transform="translate(-15436.176 -24354.514) rotate(79)">
            <path id="Path_833-3" data-name="Path 833" d="M134.5,260.036c-63.337,0-114.88-53.922-114.88-120.216S71.16,19.617,134.5,19.617c53.386,0,98.257,38.358,111.087,90.083H224.4l34.788,60.265,34.8-60.265H265.764C252.464,47.042,198.7,0,134.5,0,60.343,0,0,62.724,0,139.82S60.343,279.654,134.5,279.654a130.163,130.163,0,0,0,77.673-25.659l-11.614-15.785A110.773,110.773,0,0,1,134.5,260.036Z" transform="translate(0)" fill="#fff"/>
            <path id="Path_834-3" data-name="Path 834" d="M158.327,0A128.988,128.988,0,0,0,81.491,25.306L93.106,41.119a109.46,109.46,0,0,1,65.221-21.5c62.71,0,113.716,53.386,113.716,119.013s-51.005,119-113.716,119c-52.758,0-97.093-37.823-109.884-88.869H69.591L34.8,108.5,0,168.762H28.25c13.275,61.966,66.5,108.485,130.077,108.485,73.526,0,133.333-62.187,133.333-138.617S231.853,0,158.327,0Z" transform="translate(159.398 0.003)" fill="#fff"/>
          </g>
          <g id="Group_2469" data-name="Group 2469" transform="translate(-15714.725 -24553.678) rotate(-42)">
            <path id="Path_833-4" data-name="Path 833" d="M48.875,94.494C25.859,94.494,7.129,74.9,7.129,50.809s18.73-43.68,41.746-43.68c19.4,0,35.706,13.939,40.368,32.735h-7.7l12.642,21.9,12.647-21.9H96.576C91.743,17.095,72.2,0,48.875,0,21.928,0,0,22.793,0,50.809s21.928,50.814,48.875,50.814A47.3,47.3,0,0,0,77.1,92.3l-4.22-5.736A40.254,40.254,0,0,1,48.875,94.494Z" fill="#fff"/>
            <path id="Path_834-4" data-name="Path 834" d="M57.534,0A46.873,46.873,0,0,0,29.613,9.2l4.221,5.746a39.777,39.777,0,0,1,23.7-7.813c22.788,0,41.323,19.4,41.323,43.248S80.323,93.62,57.534,93.62c-19.172,0-35.283-13.745-39.931-32.294h7.685l-12.642-21.9L0,61.326H10.266c4.824,22.518,24.166,39.422,47.269,39.422,26.719,0,48.452-22.6,48.452-50.372S84.253,0,57.534,0Z" transform="translate(57.924 0.001)" fill="#fff"/>
          </g>
          <g id="Group_2470" data-name="Group 2470" transform="translate(-15389.843 -24354.514) rotate(20)">
            <path id="Path_833-5" data-name="Path 833" d="M32.564,62.96C17.229,62.96,4.75,49.9,4.75,33.853s12.48-29.1,27.815-29.1c12.926,0,23.79,9.287,26.9,21.811h-5.13l8.423,14.591L71.18,26.561H64.347C61.127,11.39,48.109,0,32.564,0,14.61,0,0,15.187,0,33.853S14.61,67.709,32.564,67.709A31.515,31.515,0,0,0,51.371,61.5l-2.812-3.822A26.821,26.821,0,0,1,32.564,62.96Z" transform="translate(0)" fill="#fff"/>
            <path id="Path_834-5" data-name="Path 834" d="M38.334,0a31.23,31.23,0,0,0-18.6,6.127l2.812,3.828A26.5,26.5,0,0,1,38.334,4.75c15.183,0,27.533,12.926,27.533,28.815S53.517,62.377,38.334,62.377c-12.774,0-23.508-9.158-26.6-21.517h5.12L8.426,26.269,0,40.861H6.84c3.214,15,16.1,26.266,31.494,26.266,17.8,0,32.283-15.057,32.283-33.562S56.136,0,38.334,0Z" transform="translate(38.593 0.001)" fill="#fff"/>
          </g>
          <g id="Group_2471" data-name="Group 2471" transform="translate(-15577.043 -24791.066) rotate(20)">
            <path id="Path_833-6" data-name="Path 833" d="M57.446,111.065c-27.052,0-49.067-23.031-49.067-51.346S30.394,8.379,57.446,8.379c22.8,0,41.967,16.383,47.447,38.476H95.843L110.7,72.594l14.865-25.74H113.512C107.831,20.092,84.867,0,57.446,0,25.773,0,0,26.79,0,59.719s25.773,59.725,57.446,59.725a55.6,55.6,0,0,0,33.175-10.959l-4.96-6.742A47.313,47.313,0,0,1,57.446,111.065Z" transform="translate(0)" fill="#fff"/>
            <path id="Path_834-6" data-name="Path 834" d="M67.624,0A55.092,55.092,0,0,0,34.806,10.809l4.961,6.754A46.752,46.752,0,0,1,67.624,8.379c26.785,0,48.57,22.8,48.57,50.832s-21.785,50.827-48.57,50.827c-22.534,0-41.47-16.155-46.933-37.957h9.032L14.864,46.341,0,72.081H12.066c5.67,26.467,28.4,46.335,55.558,46.335,31.4,0,56.949-26.561,56.949-59.205S99.027,0,67.624,0Z" transform="translate(68.081 0.001)" fill="#fff"/>
          </g>
        </g>
      </g>
    </g>
  </g>
</svg>
