<?xml version="1.0" encoding="utf-8"?>
<!-- Generator: Adobe Illustrator 25.2.0, SVG Export Plug-In . SVG Version: 6.00 Build 0)  -->
<svg version="1.1" id="Layer_1" xmlns="http://www.w3.org/2000/svg" xmlns:xlink="http://www.w3.org/1999/xlink" x="0px" y="0px"
	 viewBox="0 0 511 511" style="enable-background:new 0 0 511 511;" xml:space="preserve">
<style type="text/css">
	.st0{opacity:0.35;}
	.st1{opacity:0.255;fill:url(#Path_899_1_);enable-background:new    ;}
	.st2{opacity:0.147;fill:url(#Path_858_1_);enable-background:new    ;}
	.st3{opacity:0.501;clip-path:url(#SVGID_2_);}
	.st4{fill:none;stroke:#FFFFFF;stroke-width:9;stroke-linecap:round;stroke-linejoin:round;}
	.st5{fill:none;stroke:#FFFFFF;stroke-width:4;stroke-linecap:round;stroke-linejoin:round;}
	.st6{fill:none;stroke:#FFFFFF;stroke-width:8;stroke-linecap:round;stroke-linejoin:round;}
</style>
<g id="Group_2498" transform="translate(14531 24702)">
	<g id="Group_2493" class="st0">
		
			<linearGradient id="Path_899_1_" gradientUnits="userSpaceOnUse" x1="-14573.2773" y1="-24026.6504" x2="-14571.5918" y2="-24025.2441" gradientTransform="matrix(511 0 0 -511 7432230 -12301698)">
			<stop  offset="0" style="stop-color:#2C92E8"/>
			<stop  offset="1" style="stop-color:#2CD2AC"/>
		</linearGradient>
		<path id="Path_899" class="st1" d="M-14275.5-24702c141.1,0,255.5,114.4,255.5,255.5s-114.4,255.5-255.5,255.5
			s-255.5-114.4-255.5-255.5S-14416.6-24702-14275.5-24702z"/>
		
			<linearGradient id="Path_858_1_" gradientUnits="userSpaceOnUse" x1="-14571.917" y1="-24025.4336" x2="-14572.5596" y2="-24026.0742" gradientTransform="matrix(511 0 0 -511 7432230 -12301698)">
			<stop  offset="0" style="stop-color:#1CD8B4"/>
			<stop  offset="1" style="stop-color:#FDCB31"/>
		</linearGradient>
		<path id="Path_858" class="st2" d="M-14275.5-24702c141.1,0,255.5,114.4,255.5,255.5s-114.4,255.5-255.5,255.5
			s-255.5-114.4-255.5-255.5S-14416.6-24702-14275.5-24702z"/>
		<g>
			<defs>
				<circle id="SVGID_1_" cx="-14275.5" cy="-24446.5" r="255.5"/>
			</defs>
			<clipPath id="SVGID_2_">
				<use xlink:href="#SVGID_1_"  style="overflow:visible;"/>
			</clipPath>
			<g id="Mask_Group_26" class="st3">
				<g id="Group_2486" transform="translate(-71 24)">
					<g id="Group_2481" transform="translate(-271.688 -90.539)">
						<g id="Group_2480" transform="translate(-14155.453 -24411.313)">
							<g id="Group_2357" transform="translate(0)">
								<path id="Path_847" class="st4" d="M0,326.9V166.2c0,0-1.7-87.2,101.5-87.2s107.5,95.8,107.5,95.8l32.7,74.1h-32.7v62.7
									c0,0,1.5,24.5-29.3,24.5"/>
								<path id="Path_848" class="st4" d="M331.9,247.9V87.2c0,0,1.7-87.2-101.5-87.2S123,95.8,123,95.8l-32.7,74.1H123v62.7
									c0,0-1.5,24.5,29.3,24.5"/>
							</g>
						</g>
					</g>
					<g id="Group_2482" transform="translate(-253.688 -204.223)">
						<g id="Group_2480-2" transform="translate(-14155.453 -24411.313)">
							<g id="Group_2357-2" transform="translate(0)">
								<path id="Path_847-2" class="st5" d="M0,124.3V63.2C0,63.2-0.6,30,38.6,30s40.9,36.4,40.9,36.4l12.4,28.2H79.4v23.8
									c0,0,0.6,9.3-11.2,9.3"/>
								<path id="Path_848-2" class="st5" d="M126.2,94.3V33.2c0,0,0.6-33.2-38.6-33.2S46.8,36.4,46.8,36.4L34.3,64.6h12.4v23.8
									c0,0-0.6,9.3,11.2,9.3"/>
							</g>
						</g>
					</g>
					<g id="Group_2483" transform="translate(-36.688 -300.357)">
						<g id="Group_2480-3" transform="translate(-14155.453 -24411.313)">
							<g id="Group_2357-3" transform="translate(0)">
								<path id="Path_847-3" class="st5" d="M0,257.9V131.2c0,0-1.3-68.8,80-68.8s84.8,75.6,84.8,75.6l25.8,58.5h-25.8v49.4
									c0,0,1.2,19.3-23.1,19.3"/>
								<path id="Path_848-3" class="st5" d="M261.9,195.6V68.8c0,0,1.3-68.8-80.1-68.8S97,75.6,97,75.6l-25.8,58.5H97v49.4
									c0,0-1.2,19.3,23.1,19.3"/>
							</g>
						</g>
					</g>
					<g id="Group_2484" transform="translate(-519.688 -124.837)">
						<g id="Group_2480-4" transform="translate(-14155.453 -24411.313)">
							<g id="Group_2357-4" transform="translate(0)">
								<path id="Path_847-4" class="st5" d="M0,202v-99.3c0,0-1-53.9,62.7-53.9s66.4,59.2,66.4,59.2l20.2,45.8h-20.2v38.7
									c0,0,0.9,15.1-18.1,15.1"/>
								<path id="Path_848-4" class="st5" d="M205.1,153.2V53.9c0,0,1-53.9-62.7-53.9S76,59.2,76,59.2L55.8,105H76v38.7
									c0,0-0.9,15.1,18.1,15.1"/>
							</g>
						</g>
					</g>
					<g id="Group_2485" transform="translate(-341.775 -564.508)">
						<g id="Group_2480-5" transform="translate(-14155.453 -24411.313)">
							<g id="Group_2357-5" transform="translate(0)">
								<path id="Path_847-5" class="st6" d="M0,318.4V161.9c0,0-1.6-84.9,98.8-84.9s104.7,93.3,104.7,93.3l31.8,72.2h-31.8v61
									c0,0,1.5,23.9-28.6,23.9"/>
								<path id="Path_848-5" class="st6" d="M323.3,241.4V84.9c0,0,1.6-84.9-98.8-84.9S119.8,93.3,119.8,93.3L88,165.5h31.8v61
									c0,0-1.4,23.9,28.6,23.9"/>
							</g>
						</g>
					</g>
					<g id="Group_2487" transform="translate(103.174 -35.187)">
						<g id="Group_2480-6" transform="translate(-14155.453 -24411.313)">
							<g id="Group_2357-6" transform="translate(0)">
								<path id="Path_847-6" class="st5" d="M0,152.8V77.7c0,0-0.8-40.8,47.4-40.8s50.2,44.8,50.2,44.8l15.3,34.7H97.7v29.3
									c0,0,0.7,11.4-13.7,11.4"/>
								<path id="Path_848-6" class="st5" d="M155.2,115.9V40.8c0,0,0.8-40.8-47.4-40.8S57.5,44.8,57.5,44.8L42.2,79.4h15.3v29.3
									c0,0-0.7,11.4,13.7,11.4"/>
							</g>
						</g>
					</g>
				</g>
			</g>
		</g>
	</g>
</g>
</svg>
