<svg xmlns="http://www.w3.org/2000/svg" xmlns:xlink="http://www.w3.org/1999/xlink" width="511" height="511" viewBox="0 0 511 511">
  <defs>
    <linearGradient id="linear-gradient" x1="0.5" x2="0.5" y2="1" gradientUnits="objectBoundingBox">
      <stop offset="0" stop-color="#1cd8b4"/>
      <stop offset="1" stop-color="#5557f6"/>
    </linearGradient>
    <linearGradient id="linear-gradient-2" x1="-0.373" y1="1.201" x2="1.312" y2="-0.206" gradientUnits="objectBoundingBox">
      <stop offset="0" stop-color="#2c92e8"/>
      <stop offset="0" stop-color="#fdcb31"/>
      <stop offset="0.005" stop-color="#fb504b"/>
      <stop offset="1" stop-color="#fdcb31"/>
    </linearGradient>
    <clipPath id="clip-path">
      <path id="Path_893" data-name="Path 893" d="M255.5,0C396.609,0,511,114.391,511,255.5S396.609,511,255.5,511,0,396.609,0,255.5,114.391,0,255.5,0Z" transform="translate(-15160 -24702)" fill="url(#linear-gradient)"/>
    </clipPath>
  </defs>
  <g id="Group_2497" data-name="Group 2497" transform="translate(15160 24702)">
    <g id="Group_2492" data-name="Group 2492">
      <path id="Path_898" data-name="Path 898" d="M255.5,0C396.609,0,511,114.391,511,255.5S396.609,511,255.5,511,0,396.609,0,255.5,114.391,0,255.5,0Z" transform="translate(-15160 -24702)" opacity="0.147" fill="url(#linear-gradient-2)"/>
      <g id="Mask_Group_25" data-name="Mask Group 25" opacity="0.4" clip-path="url(#clip-path)">
        <g id="Group_2479" data-name="Group 2479" transform="translate(-116.863 -79.535)">
          <g id="Group_2473" data-name="Group 2473" transform="translate(-15077.877 -24299.307)">
            <path id="Path_857" data-name="Path 857" d="M739.958,613.34a6.792,6.792,0,1,0,0,13.584c77.625,0,140.789,63.155,140.789,140.8s-63.164,140.8-140.789,140.8a139.883,139.883,0,0,1-45.062-7.533c-3.5-39.339,2.389-66.56,18.066-83.024,14.607-15.358,38.6-22.712,74.873-22.8l-6.674,4.817A6.792,6.792,0,1,0,789.1,811l23.156-16.7a5.776,5.776,0,0,0,.96-.8,6.536,6.536,0,0,0,1.339-1.911,6.795,6.795,0,0,0-1.339-7.687,5.818,5.818,0,0,0-.96-.8l-23.156-16.7a6.792,6.792,0,0,0-7.941,11.021l5.768,4.156c-39.773.245-66.642,8.956-83.812,27C685.6,827,678.387,855.544,680.913,895.362a141.224,141.224,0,0,1-43.159-31.088c-6.927-66.388,25.691-104.495,102.366-118.812l-4.138,4.029a6.791,6.791,0,1,0,9.463,9.744l20.465-19.9a6,6,0,0,0,.834-.942,6.457,6.457,0,0,0,1.041-2.074,6.674,6.674,0,0,0,.225-2.952,6.847,6.847,0,0,0-1.058-2.771,6.94,6.94,0,0,0-1.6-1.684,6.467,6.467,0,0,0-1.077-.661l-25.357-13.122a6.792,6.792,0,1,0-6.248,12.062l8.467,4.384c-77.616,13.81-117.09,52.432-117.761,115a140.763,140.763,0,0,1-16-31.912c.67-66.868,40.46-92.179,81.274-110.4l-4.292,8.087a6.787,6.787,0,0,0,2.816,9.182,6.7,6.7,0,0,0,3.179.8,6.8,6.8,0,0,0,6-3.6L709.4,694.116a6.674,6.674,0,0,0,.779-6.42,3.009,3.009,0,0,0-.244-.353,1.23,1.23,0,0,0-.037-.182,7.166,7.166,0,0,0-.471-.58,6.991,6.991,0,0,0-1.068-1.331c-.127-.108-.181-.28-.318-.389a6.953,6.953,0,0,0-2.055-1.122,6.35,6.35,0,0,0-1.223-.29l-28.145-4.717a6.682,6.682,0,0,0-7.815,5.569,6.775,6.775,0,0,0,5.569,7.815l5.987,1c-33.471,15.232-67.647,36.323-80.9,80.66-.081-2.028-.307-4.021-.307-6.058a140.673,140.673,0,0,1,39.4-97.685l-.815,9.247a6.79,6.79,0,1,0,13.529,1.186l2.518-28.589a5.965,5.965,0,0,0-.127-1.2,8.746,8.746,0,0,0-.036-.97c-.018-.073-.082-.128-.1-.208a6.493,6.493,0,0,0-.679-1.459,7.057,7.057,0,0,0-.5-.9,6.389,6.389,0,0,0-1.1-1.006,6.86,6.86,0,0,0-.842-.688,7.782,7.782,0,0,0-1.277-.48,7.538,7.538,0,0,0-1.241-.361c-.1-.009-.173-.072-.272-.082a7.79,7.79,0,0,0-1.214.126,6.861,6.861,0,0,0-.96.037l-27.918,6.646a6.791,6.791,0,1,0,3.142,13.213l5.778-1.378a153.429,153.429,0,0,0-32.483,154.328,6.39,6.39,0,0,0,.807,2.21,154.115,154.115,0,0,0,30.336,50.821,6.673,6.673,0,0,0,2.563,2.826A153.828,153.828,0,0,0,739.958,922.1c85.114,0,154.373-69.258,154.373-154.382S825.072,613.34,739.958,613.34Z" transform="translate(-585.574 -613.34)" fill="#fff"/>
          </g>
          <g id="Group_2474" data-name="Group 2474" transform="translate(-15051 -24410.654)">
            <path id="Path_857-2" data-name="Path 857" d="M645.248,613.34a2.625,2.625,0,1,0,0,5.25A54.423,54.423,0,1,1,627.83,724.524c-1.351-15.206.924-25.727,6.983-32.091,5.646-5.936,14.918-8.779,28.941-8.813l-2.58,1.862a2.625,2.625,0,1,0,3.069,4.26l8.951-6.454a2.229,2.229,0,0,0,.371-.308,2.529,2.529,0,0,0,.518-.739,2.626,2.626,0,0,0-.518-2.971,2.244,2.244,0,0,0-.371-.308l-8.951-6.455a2.625,2.625,0,0,0-3.069,4.26l2.229,1.607c-15.374.094-25.759,3.462-32.4,10.438-6.773,7.117-9.559,18.149-8.583,33.54a54.587,54.587,0,0,1-16.682-12.016c-2.677-25.661,9.93-40.39,39.568-45.924l-1.6,1.557a2.625,2.625,0,1,0,3.658,3.766l7.911-7.694a2.318,2.318,0,0,0,.322-.364,2.493,2.493,0,0,0,.4-.8,2.582,2.582,0,0,0,.087-1.141,2.648,2.648,0,0,0-.409-1.071,2.68,2.68,0,0,0-.62-.651,2.5,2.5,0,0,0-.416-.256l-9.8-5.072a2.625,2.625,0,1,0-2.415,4.662l3.273,1.694c-30,5.338-45.259,20.266-45.518,44.451A54.415,54.415,0,0,1,594,691.156c.259-25.846,15.639-35.63,31.415-42.673l-1.659,3.126a2.624,2.624,0,0,0,1.089,3.549,2.591,2.591,0,0,0,1.229.308,2.628,2.628,0,0,0,2.321-1.393l5.044-9.511a2.58,2.58,0,0,0,.3-2.482,1.182,1.182,0,0,0-.095-.136.474.474,0,0,0-.014-.07,2.751,2.751,0,0,0-.182-.224,2.706,2.706,0,0,0-.413-.515c-.049-.042-.07-.108-.123-.15a2.685,2.685,0,0,0-.794-.434,2.459,2.459,0,0,0-.473-.112l-10.879-1.823a2.583,2.583,0,0,0-3.021,2.153,2.619,2.619,0,0,0,2.153,3.021l2.314.388c-12.938,5.888-26.148,14.04-31.269,31.177-.031-.784-.119-1.554-.119-2.341a54.374,54.374,0,0,1,15.23-37.758l-.315,3.574a2.625,2.625,0,1,0,5.229.458l.974-11.051a2.306,2.306,0,0,0-.049-.465,3.385,3.385,0,0,0-.014-.375c-.007-.028-.032-.049-.039-.08a2.5,2.5,0,0,0-.263-.564,2.728,2.728,0,0,0-.193-.35,2.474,2.474,0,0,0-.423-.389,2.637,2.637,0,0,0-.325-.266,3.013,3.013,0,0,0-.493-.186,2.907,2.907,0,0,0-.48-.14c-.039,0-.067-.028-.105-.032a3.013,3.013,0,0,0-.469.049,2.643,2.643,0,0,0-.371.014l-10.791,2.569a2.625,2.625,0,1,0,1.215,5.107l2.233-.532a59.305,59.305,0,0,0-12.556,59.653,2.474,2.474,0,0,0,.312.854,59.575,59.575,0,0,0,11.726,19.644,2.579,2.579,0,0,0,.991,1.092,59.636,59.636,0,1,0,43.4-100.5Z" transform="translate(-585.574 -613.34)" fill="#fff"/>
          </g>
          <g id="Group_2475" data-name="Group 2475" transform="translate(-15035.328 -24776.803)">
            <path id="Path_857-3" data-name="Path 857" d="M783.064,613.34a8.688,8.688,0,0,0,0,17.376c99.3,0,180.1,80.789,180.1,180.113s-80.8,180.111-180.1,180.111a178.941,178.941,0,0,1-57.643-9.637c-4.472-50.323,3.056-85.145,23.111-106.206,18.685-19.646,49.372-29.053,95.779-29.168l-8.537,6.162a8.688,8.688,0,1,0,10.158,14.1l29.622-21.36a7.371,7.371,0,0,0,1.228-1.02,8.362,8.362,0,0,0,1.713-2.444,8.691,8.691,0,0,0-1.713-9.833,7.4,7.4,0,0,0-1.228-1.021l-29.622-21.362a8.688,8.688,0,0,0-10.158,14.1l7.379,5.317c-50.878.313-85.25,11.456-107.213,34.543-22.415,23.552-31.637,60.065-28.406,111a180.654,180.654,0,0,1-55.21-39.768c-8.861-84.924,32.865-133.672,130.949-151.987l-5.293,5.154a8.688,8.688,0,1,0,12.1,12.465l26.18-25.462a7.654,7.654,0,0,0,1.066-1.2,8.261,8.261,0,0,0,1.332-2.653,8.544,8.544,0,0,0,.288-3.776,8.758,8.758,0,0,0-1.353-3.545,8.875,8.875,0,0,0-2.052-2.154,8.256,8.256,0,0,0-1.378-.846l-32.437-16.785a8.688,8.688,0,1,0-7.993,15.43l10.831,5.608c-99.288,17.665-149.784,67.072-150.643,147.109a180.084,180.084,0,0,1-20.468-40.823c.857-85.539,51.757-117.916,103.967-141.225l-5.49,10.345a8.682,8.682,0,0,0,3.6,11.746,8.572,8.572,0,0,0,4.067,1.02,8.7,8.7,0,0,0,7.68-4.61l16.692-31.476a8.537,8.537,0,0,0,1-8.212,3.872,3.872,0,0,0-.313-.451,1.6,1.6,0,0,0-.047-.233,9.138,9.138,0,0,0-.6-.742,8.951,8.951,0,0,0-1.367-1.7c-.163-.138-.232-.358-.406-.5a8.888,8.888,0,0,0-2.629-1.436,8.107,8.107,0,0,0-1.565-.372l-36-6.034a8.548,8.548,0,0,0-10,7.124,8.667,8.667,0,0,0,7.124,10l7.658,1.284c-42.817,19.486-86.536,46.465-103.484,103.182-.1-2.595-.393-5.144-.393-7.749a179.952,179.952,0,0,1,50.4-124.962L652.312,697.7a8.686,8.686,0,1,0,17.306,1.518l3.221-36.572a7.624,7.624,0,0,0-.163-1.539,11.189,11.189,0,0,0-.046-1.24c-.023-.093-.1-.163-.127-.266a8.287,8.287,0,0,0-.869-1.866,9.013,9.013,0,0,0-.638-1.157,8.187,8.187,0,0,0-1.4-1.287,8.767,8.767,0,0,0-1.077-.88,9.95,9.95,0,0,0-1.633-.615,9.638,9.638,0,0,0-1.587-.462c-.129-.012-.221-.093-.348-.1a10,10,0,0,0-1.554.162,8.759,8.759,0,0,0-1.228.047l-35.713,8.5a8.687,8.687,0,1,0,4.02,16.9l7.391-1.762A196.27,196.27,0,0,0,596.313,874.5a8.174,8.174,0,0,0,1.033,2.827,197.157,197.157,0,0,0,38.806,65.011,8.536,8.536,0,0,0,3.279,3.614c36.038,38.286,87.021,62.37,143.634,62.37,108.88,0,197.477-88.6,197.477-197.488S891.944,613.34,783.064,613.34Z" transform="translate(-585.574 -613.34)" fill="#fff"/>
          </g>
          <g id="Group_2476" data-name="Group 2476" transform="translate(-14740.064 -24234.754)">
            <path id="Path_857-4" data-name="Path 857" d="M652.578,613.34a2.948,2.948,0,0,0,0,5.9,61.108,61.108,0,1,1-19.557,118.947c-1.517-17.073,1.037-28.888,7.841-36.033,6.34-6.666,16.751-9.857,32.5-9.9l-2.9,2.091a2.948,2.948,0,1,0,3.446,4.783l10.05-7.247a2.509,2.509,0,0,0,.417-.346,2.839,2.839,0,0,0,.581-.829,2.949,2.949,0,0,0-.581-3.336,2.516,2.516,0,0,0-.417-.346l-10.05-7.248a2.948,2.948,0,1,0-3.446,4.783l2.5,1.8c-17.262.106-28.923,3.887-36.375,11.72-7.6,7.991-10.734,20.379-9.638,37.66a61.289,61.289,0,0,1-18.732-13.492c-3.007-28.813,11.15-45.352,44.428-51.566l-1.8,1.749a2.948,2.948,0,1,0,4.107,4.229l8.882-8.639a2.6,2.6,0,0,0,.362-.409,2.8,2.8,0,0,0,.452-.9,2.9,2.9,0,0,0,.1-1.281,2.973,2.973,0,0,0-.459-1.2,3.013,3.013,0,0,0-.7-.731,2.794,2.794,0,0,0-.467-.287l-11.005-5.695a2.948,2.948,0,1,0-2.712,5.235l3.675,1.9c-33.686,5.994-50.819,22.756-51.11,49.911a61.1,61.1,0,0,1-6.944-13.85c.291-29.021,17.56-40.007,35.274-47.915l-1.863,3.51a2.946,2.946,0,0,0,1.222,3.985,2.908,2.908,0,0,0,1.38.346,2.951,2.951,0,0,0,2.606-1.564l5.663-10.679a2.9,2.9,0,0,0,.338-2.786,1.321,1.321,0,0,0-.106-.153.565.565,0,0,0-.016-.079,3.09,3.09,0,0,0-.2-.252,3.033,3.033,0,0,0-.464-.578c-.055-.047-.079-.122-.138-.169a3.016,3.016,0,0,0-.892-.487,2.768,2.768,0,0,0-.531-.126l-12.215-2.047a2.9,2.9,0,0,0-3.392,2.417,2.941,2.941,0,0,0,2.417,3.392l2.6.436c-14.527,6.611-29.36,15.765-35.11,35.007-.035-.88-.133-1.745-.133-2.629a61.054,61.054,0,0,1,17.1-42.4l-.354,4.013a2.947,2.947,0,1,0,5.872.515l1.093-12.408a2.59,2.59,0,0,0-.055-.522,3.8,3.8,0,0,0-.016-.421c-.008-.032-.035-.055-.043-.09a2.814,2.814,0,0,0-.295-.633,3.06,3.06,0,0,0-.216-.393,2.773,2.773,0,0,0-.475-.437,2.973,2.973,0,0,0-.365-.3,3.377,3.377,0,0,0-.554-.209,3.272,3.272,0,0,0-.539-.157c-.044,0-.075-.031-.118-.036a3.387,3.387,0,0,0-.527.055,2.984,2.984,0,0,0-.417.016l-12.117,2.885a2.947,2.947,0,1,0,1.364,5.734l2.508-.6a66.59,66.59,0,0,0-14.1,66.98,2.773,2.773,0,0,0,.35.959,66.891,66.891,0,0,0,13.166,22.057,2.9,2.9,0,0,0,1.112,1.226A66.962,66.962,0,1,0,652.578,613.34Z" transform="translate(-585.574 -613.34)" fill="#fff"/>
          </g>
          <g id="Group_2477" data-name="Group 2477" transform="translate(-14651.256 -24562.195)">
            <path id="Path_857-5" data-name="Path 857" d="M765.945,613.34a7.935,7.935,0,0,0,0,15.87c90.691,0,164.488,73.786,164.488,164.5s-73.8,164.5-164.488,164.5a163.43,163.43,0,0,1-52.646-8.8c-4.084-45.96,2.791-77.764,21.107-97,17.066-17.943,45.093-26.535,87.476-26.639l-7.8,5.627a7.935,7.935,0,1,0,9.277,12.876l27.054-19.509a6.754,6.754,0,0,0,1.122-.932A7.644,7.644,0,0,0,853.1,821.6a7.938,7.938,0,0,0-1.565-8.981,6.788,6.788,0,0,0-1.122-.932l-27.054-19.51a7.935,7.935,0,1,0-9.277,12.876l6.739,4.856c-46.468.286-77.86,10.463-97.919,31.549-20.472,21.511-28.895,54.858-25.944,101.379a164.994,164.994,0,0,1-50.424-36.32c-8.093-77.562,30.016-122.084,119.6-138.811l-4.834,4.707a7.935,7.935,0,1,0,11.056,11.384l23.91-23.255a7.012,7.012,0,0,0,.974-1.1,7.542,7.542,0,0,0,1.217-2.423,7.8,7.8,0,0,0,.263-3.449,8,8,0,0,0-1.236-3.238,8.106,8.106,0,0,0-1.874-1.967,7.514,7.514,0,0,0-1.258-.773l-29.625-15.33a7.935,7.935,0,1,0-7.3,14.092l9.892,5.122c-90.681,16.134-136.8,61.257-137.584,134.356a164.476,164.476,0,0,1-18.694-37.284c.783-78.124,47.271-107.695,94.954-128.983l-5.014,9.448a7.929,7.929,0,0,0,3.29,10.728,7.828,7.828,0,0,0,3.714.931,7.944,7.944,0,0,0,7.014-4.21l15.245-28.747a7.8,7.8,0,0,0,.911-7.5,3.605,3.605,0,0,0-.285-.412,1.523,1.523,0,0,0-.043-.213,8.307,8.307,0,0,0-.551-.677,8.17,8.17,0,0,0-1.248-1.555c-.148-.127-.212-.327-.371-.454a8.114,8.114,0,0,0-2.4-1.312,7.415,7.415,0,0,0-1.429-.339l-32.882-5.511a7.807,7.807,0,0,0-9.131,6.507,7.916,7.916,0,0,0,6.507,9.131l6.995,1.173c-39.105,17.8-79.034,42.437-94.513,94.237-.095-2.37-.359-4.7-.359-7.077a164.353,164.353,0,0,1,46.034-114.129l-.952,10.8a7.933,7.933,0,1,0,15.806,1.386l2.942-33.4a6.969,6.969,0,0,0-.148-1.406,10.245,10.245,0,0,0-.042-1.133c-.021-.085-.1-.149-.116-.243a7.577,7.577,0,0,0-.794-1.7,8.223,8.223,0,0,0-.582-1.057,7.48,7.48,0,0,0-1.28-1.175,8,8,0,0,0-.983-.8,9.076,9.076,0,0,0-1.492-.561,8.774,8.774,0,0,0-1.45-.422c-.118-.011-.2-.085-.318-.1a9.107,9.107,0,0,0-1.419.148,8.027,8.027,0,0,0-1.122.042l-32.617,7.765a7.934,7.934,0,1,0,3.671,15.437l6.75-1.609a179.256,179.256,0,0,0-37.952,180.307,7.474,7.474,0,0,0,.943,2.582,180.07,180.07,0,0,0,35.442,59.375,7.8,7.8,0,0,0,2.994,3.3,179.721,179.721,0,0,0,131.183,56.964c99.441,0,180.359-80.916,180.359-180.369S865.386,613.34,765.945,613.34Z" transform="translate(-585.574 -613.34)" fill="#fff"/>
          </g>
          <path id="Path_857-6" data-name="Path 857" d="M635.4,613.34a2.192,2.192,0,1,0,0,4.384,45.44,45.44,0,1,1-14.543,88.449c-1.128-12.7.771-21.481,5.83-26.794,4.714-4.956,12.456-7.33,24.164-7.359l-2.154,1.554a2.192,2.192,0,1,0,2.563,3.557l7.473-5.389a1.869,1.869,0,0,0,.31-.257,2.111,2.111,0,0,0,.432-.617,2.194,2.194,0,0,0-.432-2.481,1.871,1.871,0,0,0-.31-.257l-7.473-5.39A2.192,2.192,0,0,0,648.7,666.3l1.862,1.341c-12.836.079-21.507,2.89-27.049,8.715-5.655,5.942-7.982,15.154-7.167,28a45.575,45.575,0,0,1-13.929-10.033c-2.236-21.425,8.291-33.724,33.037-38.344l-1.336,1.3a2.192,2.192,0,1,0,3.054,3.145l6.6-6.424a1.925,1.925,0,0,0,.269-.3,2.082,2.082,0,0,0,.336-.669,2.154,2.154,0,0,0,.073-.953,2.209,2.209,0,0,0-.341-.894,2.237,2.237,0,0,0-.518-.543,2.081,2.081,0,0,0-.347-.213l-8.184-4.235a2.192,2.192,0,1,0-2.017,3.893l2.733,1.415c-25.049,4.457-37.789,16.921-38.005,37.114a45.43,45.43,0,0,1-5.164-10.3c.216-21.58,13.058-29.749,26.23-35.63l-1.385,2.61a2.191,2.191,0,0,0,.909,2.964,2.164,2.164,0,0,0,1.026.257,2.194,2.194,0,0,0,1.938-1.163l4.211-7.941a2.154,2.154,0,0,0,.252-2.072.989.989,0,0,0-.079-.114.4.4,0,0,0-.012-.059,2.216,2.216,0,0,0-.152-.187,2.25,2.25,0,0,0-.345-.43c-.041-.035-.059-.09-.1-.126a2.243,2.243,0,0,0-.663-.362,2.063,2.063,0,0,0-.395-.094l-9.083-1.522a2.156,2.156,0,0,0-2.522,1.8,2.187,2.187,0,0,0,1.8,2.522l1.932.324c-10.8,4.916-21.832,11.723-26.108,26.032-.026-.655-.1-1.3-.1-1.955a45.4,45.4,0,0,1,12.716-31.526l-.263,2.984a2.191,2.191,0,1,0,4.366.383l.813-9.227a1.924,1.924,0,0,0-.041-.388,2.789,2.789,0,0,0-.012-.313c-.006-.024-.026-.041-.032-.067a2.093,2.093,0,0,0-.219-.471,2.3,2.3,0,0,0-.161-.292,2.074,2.074,0,0,0-.353-.325,2.231,2.231,0,0,0-.272-.222,2.5,2.5,0,0,0-.412-.155,2.421,2.421,0,0,0-.4-.117c-.033,0-.056-.023-.088-.026a2.5,2.5,0,0,0-.392.041,2.206,2.206,0,0,0-.31.012l-9.01,2.145a2.192,2.192,0,1,0,1.014,4.264l1.865-.444a49.517,49.517,0,0,0-10.484,49.807,2.064,2.064,0,0,0,.261.713,49.739,49.739,0,0,0,9.79,16.4,2.155,2.155,0,0,0,.827.912A49.793,49.793,0,1,0,635.4,613.34Z" transform="translate(-15383.815 -24970.879)" fill="#fff"/>
        </g>
      </g>
    </g>
  </g>
</svg>
