<svg id="Layer_1" data-name="Layer 1" xmlns="http://www.w3.org/2000/svg" viewBox="0 0 100 100">
  <defs>
    <style>
      .cls-5{fill:#62626a}
    </style>
  </defs>
  <g id="continuousDelivery">
    <g id="Cross_Functional_Teams" data-name="Cross Functional Teams">
      <g id="background-2">
        <circle cx="50.06" cy="50" r="50" fill="#fff"/>
        <circle cx="50.06" cy="50" r="48.5" fill="none" stroke="#269eef" stroke-width="3"/>
      </g>
    </g>
    <text transform="translate(24.68 62.61)" style="isolation:isolate" fill="#62626a" font-size="10" font-family="ProximaNova-Regular,Proxima Nova" letter-spacing="0">
      Continuous<tspan><tspan x="7.14" y="12">Delivery</tspan></tspan>
    </text>
    <g id="Group_2232" data-name="Group 2232">
      <g id="Group_2231" data-name="Group 2231">
        <path id="Path_832" data-name="Path 832" class="cls-5" d="M57.2 21.92a9.24 9.24 0 00-5.2 1.6.55.55 0 00-.14.76.56.56 0 00.76.15A8.11 8.11 0 0157.2 23a8.66 8.66 0 018.43 8.84 8.65 8.65 0 01-8.43 8.83 8.53 8.53 0 01-8.2-6.74h1.88l-2.53-4.38-2.52 4.38h2a9.51 9.51 0 0018.86-2.07 9.76 9.76 0 00-9.49-9.94z"/>
        <path id="Path_833" data-name="Path 833" class="cls-5" d="M48.39 39.28a8.05 8.05 0 01-4.56 1.41 8.64 8.64 0 01-8.43-8.83A8.65 8.65 0 0143.83 23 8.54 8.54 0 0152 29.78h-1.87l2.53 4.38 2.53-4.38h-2a9.66 9.66 0 00-9.32-7.86 9.76 9.76 0 00-9.54 9.94 9.76 9.76 0 009.54 9.93A9.28 9.28 0 0049 40.2a.55.55 0 00-.62-.92z"/>
      </g>
    </g>
  </g>
</svg>
