<svg xmlns="http://www.w3.org/2000/svg" width="30.616" height="30.804" viewBox="0 0 30.616 30.804">
  <g id="Group_2361" data-name="Group 2361" transform="translate(-207 -392.475)">
    <path id="Path_828" data-name="Path 828" d="M553.891,611.233a.643.643,0,0,0-.881.23,10.154,10.154,0,0,1-3.675,3.655.644.644,0,0,0,.644,1.115,11.456,11.456,0,0,0,4.143-4.12A.644.644,0,0,0,553.891,611.233Z" transform="translate(-321.963 -198.389)" fill="#0c0c0d"/>
    <path id="Path_829" data-name="Path 829" d="M549.321,595.188a10.147,10.147,0,0,1,3.741,3.753.644.644,0,1,0,1.118-.638,11.439,11.439,0,0,0-4.218-4.231.644.644,0,0,0-.642,1.117Z" transform="translate(-321.961 -195.955)" fill="#0c0c0d"/>
    <path id="Path_830" data-name="Path 830" d="M532.212,599.188a.628.628,0,0,0,.318.085.643.643,0,0,0,.56-.325,10.139,10.139,0,0,1,3.75-3.763.644.644,0,1,0-.642-1.116,11.415,11.415,0,0,0-4.226,4.242A.642.642,0,0,0,532.212,599.188Z" transform="translate(-319.536 -195.955)" fill="#0c0c0d"/>
    <path id="Path_831" data-name="Path 831" d="M536.853,615.129a10.147,10.147,0,0,1-3.7-3.674.644.644,0,0,0-1.111.651,11.437,11.437,0,0,0,4.169,4.139.644.644,0,0,0,.642-1.116Z" transform="translate(-319.545 -198.387)" fill="#0c0c0d"/>
    <path id="Subtraction_3" data-name="Subtraction 3" d="M7.879,3.943H0a3.94,3.94,0,1,1,7.879,0Z" transform="translate(218.263 396.416)" fill="#0c0c0d"/>
    <circle id="Ellipse_286" data-name="Ellipse 286" cx="1.971" cy="1.971" r="1.971" transform="translate(220.232 392.475)" fill="#0c0c0d"/>
    <path id="Subtraction_4" data-name="Subtraction 4" d="M7.879,3.943H0a3.94,3.94,0,1,1,7.879,0Z" transform="translate(218.263 419.336)" fill="#0c0c0d"/>
    <circle id="Ellipse_287" data-name="Ellipse 287" cx="1.971" cy="1.971" r="1.971" transform="translate(220.232 415.396)" fill="#0c0c0d"/>
    <path id="Subtraction_5" data-name="Subtraction 5" d="M7.879,3.943H0a3.94,3.94,0,1,1,7.879,0Z" transform="translate(229.736 407.914)" fill="#0c0c0d"/>
    <circle id="Ellipse_288" data-name="Ellipse 288" cx="1.971" cy="1.971" r="1.971" transform="translate(231.705 403.973)" fill="#0c0c0d"/>
    <path id="Subtraction_6" data-name="Subtraction 6" d="M7.879,3.943H0a3.94,3.94,0,1,1,7.879,0Z" transform="translate(207 407.914)" fill="#0c0c0d"/>
    <circle id="Ellipse_289" data-name="Ellipse 289" cx="1.971" cy="1.971" r="1.971" transform="translate(208.969 403.973)" fill="#0c0c0d"/>
  </g>
</svg>
