<svg xmlns="http://www.w3.org/2000/svg" width="23.594" height="23.594" viewBox="0 0 23.594 23.594">
  <g id="Group_2363" data-name="Group 2363" transform="translate(-392 -396.117)">
    <path id="Path_857" data-name="Path 857" d="M597.371,613.34a.519.519,0,0,0,0,1.038,10.759,10.759,0,1,1-3.443,20.943c-.267-3.006.183-5.086,1.38-6.344,1.116-1.174,2.949-1.736,5.721-1.742l-.51.368a.519.519,0,1,0,.607.842l1.769-1.276a.437.437,0,0,0,.073-.061.5.5,0,0,0,.1-.146.519.519,0,0,0-.1-.587.439.439,0,0,0-.073-.061l-1.769-1.276a.519.519,0,1,0-.607.842l.441.318c-3.039.019-5.092.684-6.4,2.064-1.339,1.407-1.89,3.588-1.7,6.631a10.793,10.793,0,0,1-3.3-2.376c-.529-5.073,1.963-7.985,7.822-9.079l-.316.308a.519.519,0,1,0,.723.745l1.564-1.521a.455.455,0,0,0,.064-.072.5.5,0,0,0,.08-.158.511.511,0,0,0,.017-.226.514.514,0,0,0-.2-.34.49.49,0,0,0-.082-.051l-1.938-1a.519.519,0,1,0-.477.922l.647.335c-5.931,1.055-8.948,4.007-9,8.788a10.756,10.756,0,0,1-1.223-2.439c.051-5.11,3.092-7.044,6.211-8.436l-.328.618a.519.519,0,0,0,.215.7.512.512,0,0,0,.243.061.52.52,0,0,0,.459-.275l1-1.88a.51.51,0,0,0,.06-.491.242.242,0,0,0-.019-.027.09.09,0,0,0,0-.014,14.567,14.567,0,0,1-.118-.146c-.01-.008-.014-.021-.024-.03a.532.532,0,0,0-.157-.086.489.489,0,0,0-.093-.022l-2.151-.361a.511.511,0,0,0-.6.426.518.518,0,0,0,.426.6l.457.077c-2.558,1.164-5.169,2.776-6.182,6.164-.006-.155-.023-.307-.023-.463a10.749,10.749,0,0,1,3.011-7.465l-.062.707a.519.519,0,1,0,1.034.091l.192-2.185a.455.455,0,0,0-.01-.092.668.668,0,0,0,0-.074c0-.006-.006-.01-.008-.016a.5.5,0,0,0-.052-.111.545.545,0,0,0-.038-.069.493.493,0,0,0-.084-.077.525.525,0,0,0-.064-.053.59.59,0,0,0-.1-.037.571.571,0,0,0-.095-.028c-.008,0-.013-.006-.021-.006a.6.6,0,0,0-.093.01.523.523,0,0,0-.073,0l-2.133.508a.519.519,0,1,0,.24,1.01l.441-.105a11.724,11.724,0,0,0-2.482,11.793.489.489,0,0,0,.062.169,11.778,11.778,0,0,0,2.318,3.884.51.51,0,0,0,.2.216,11.79,11.79,0,1,0,8.58-19.869Z" transform="translate(-193.574 -217.223)" fill="#0c0c0d"/>
  </g>
</svg>
