<svg version="1.1" id="Layer_1" xmlns="http://www.w3.org/2000/svg" x="0" y="0" viewBox="0 0 120 30.2" xml:space="preserve"><style>.st0{fill:#101010}.st1{fill:#0c0c0d}</style><g id="Group_2406" transform="translate(-239.953 -40.916)"><path class="st0" d="M281 51.6c2.1 0 3.3.9 4 1.8l-1.7 1.6c-.5-.7-1.2-1.1-2.1-1.1-1.6 0-2.8 1.2-2.8 2.9s1.1 3 2.8 3c.9 0 1.7-.4 2.1-1.1l1.7 1.6c-.7.9-1.9 1.8-4 1.8-3.1 0-5.4-2.2-5.4-5.3 0-3 2.2-5.2 5.4-5.2zM286.1 56.9c0-2.9 2-5.3 5.4-5.3 3.4 0 5.4 2.4 5.4 5.3s-2 5.3-5.4 5.3c-3.4.1-5.4-2.4-5.4-5.3zm7.9 0c0-1.6-.9-2.9-2.6-2.9s-2.6 1.4-2.6 2.9c0 1.6.9 3 2.6 3s2.6-1.4 2.6-3zM311.4 55.6c0-.9-.4-1.6-1.5-1.6-.9 0-1.7.6-2.1 1.2V62h-2.7v-6.4c0-.9-.4-1.6-1.5-1.6-.9 0-1.7.6-2.1 1.2V62h-2.7V51.9h2.7v1.3c.4-.6 1.8-1.6 3.3-1.6 1.5 0 2.4.7 2.8 1.8.6-.9 1.9-1.8 3.5-1.8 1.9 0 3 1 3 3.1V62h-2.7v-6.4zM316.7 65.9v-14h2.7v1.3c.8-1 1.9-1.5 3.1-1.5 2.6 0 4.5 1.9 4.5 5.3s-1.9 5.3-4.5 5.3c-1.2 0-2.3-.5-3.1-1.6v5.2h-2.7zm4.9-11.9c-.9 0-1.8.5-2.3 1.2v3.6c.4.6 1.4 1.2 2.3 1.2 1.5 0 2.6-1.2 2.6-3s-1-3-2.6-3zM335 61c-.7.8-1.9 1.3-3.2 1.3-1.6 0-3.5-1.1-3.5-3.4 0-2.4 1.9-3.2 3.5-3.2 1.3 0 2.5.4 3.2 1.2v-1.4c0-1-.9-1.7-2.2-1.7-1.1 0-2.1.4-3 1.2l-1-1.8c1.2-1.1 2.8-1.6 4.4-1.6 2.3 0 4.4.9 4.4 3.8V62H335v-1zm0-2.7c-.4-.6-1.3-.9-2.1-.9-1 0-1.9.5-1.9 1.5 0 .9.9 1.5 1.9 1.5.9 0 1.7-.3 2.1-.9v-1.2zM340.6 58.8c.7.7 2.2 1.4 3.5 1.4 1.2 0 1.7-.4 1.7-1 0-.7-.9-1-2-1.2-1.7-.3-4-.8-4-3.2 0-1.7 1.5-3.2 4.2-3.2 1.7 0 3.1.6 4.1 1.4l-1.1 1.8c-.6-.7-1.8-1.2-3-1.2-1 0-1.6.4-1.6.9 0 .6.8.9 1.9 1.1 1.7.3 4.1.8 4.1 3.3 0 1.8-1.6 3.3-4.4 3.3-1.8 0-3.5-.6-4.5-1.6l1.1-1.8zM350.7 58.8c.7.7 2.2 1.4 3.5 1.4 1.2 0 1.7-.4 1.7-1 0-.7-.9-1-2-1.2-1.7-.3-4-.8-4-3.2 0-1.7 1.5-3.2 4.2-3.2 1.7 0 3.1.6 4.1 1.4l-1.1 1.8c-.6-.7-1.8-1.2-3-1.2-1 0-1.6.4-1.6.9 0 .6.8.9 1.9 1.1 1.7.3 4.1.8 4.1 3.3 0 1.8-1.6 3.3-4.4 3.3-1.8 0-3.5-.6-4.5-1.6l1.1-1.8z"/><g id="Icon" transform="translate(112.377 -153.709)"><g id="Group_2322" transform="translate(132.306 210.938)"><path id="Path_813" class="st1" d="M7.5 8.9C3.7 7.7.9 4.6.1.8.1.6 0 .3 0 .1L.5 0c0 .3.1.5.1.7.7 3.6 3.4 6.6 7 7.6l-.1.6z"/></g><g id="Group_2323" transform="translate(127.576 194.625)"><path id="Path_814" class="st1" d="M15.1 30.2C6.8 30.2 0 23.5 0 15.1 0 6.8 6.8 0 15.1 0c3.8 0 7.4 1.4 10.1 3.9l.3.3L20 6.6v-.1c-4.8-2.7-10.8-1-13.5 3.8-.6 1-.9 2.1-1.1 3.2 0 .2-.1.4-.1.6l-.5-.1c0-.2.1-.4.1-.6 1-5.7 6.4-9.5 12.1-8.5 1 .1 2.1.5 3.2 1L24.6 4C18.4-1.2 9.3-.5 4 5.7-1.2 11.8-.5 21 5.7 26.2c6.1 5.2 15.3 4.5 20.5-1.6l-3.5-2.2c-1.9 2-4.6 3.2-7.4 3.2v-.5c2.7 0 5.3-1.2 7.2-3.2l.2-.2 4.4 2.8-.2.2c-3 3.5-7.2 5.5-11.8 5.5z"/></g><g id="Group_2324" transform="translate(131.918 197.273)"><path id="Path_815" class="st1" d="M27.1.9l-18 22.3-.6-7.8v-.2l-.2-.1-7.4-2.6L27.1.9m1.1-.9L0 12.6l8.2 2.8.7 8.6L28.2 0z"/></g><g id="Group_2326" transform="translate(140.135 197.64)"><g id="Group_2325"><path id="Rectangle_1308" transform="rotate(-37.646 9.7246557 7.55562102)" class="st1" d="M-2.4 7.4h24.3v.3H-2.4z"/></g></g><g id="Group_2329" transform="translate(140.186 198.508)"><g id="Group_2328"><g id="Group_2327"><path id="Rectangle_1309" transform="matrix(.9969 -.07916 .07916 .9969 -1.4382 .08931743)" class="st1" d="M.3 14.1h.2v8.2H.3z"/><path id="Rectangle_1310" transform="matrix(.9969 -.07916 .07916 .9969 -1.3768 .1462)" class="st1" d="M1.1 13.5h.2v7.9h-.2z"/><path id="Rectangle_1311" transform="matrix(.9969 -.07916 .07916 .9969 -1.3154 .2031)" class="st1" d="M1.8 12.9H2v7.6h-.2z"/><path id="Rectangle_1312" transform="matrix(.9969 -.07916 .07916 .9969 -1.254 .2599)" class="st1" d="M2.6 12.3h.2v7.2h-.2z"/><path id="Rectangle_1313" transform="matrix(.9969 -.07916 .07916 .9969 -1.1925 .3168)" class="st1" d="M3.3 11.7h.2v6.9h-.2z"/><path id="Rectangle_1314" transform="matrix(.9969 -.07916 .07916 .9969 -1.1312 .3737)" class="st1" d="M4.1 11.2h.2v6.6h-.2z"/><path id="Rectangle_1315" transform="matrix(.9969 -.07916 .07916 .9969 -1.0698 .4306)" class="st1" d="M4.8 10.6H5v6.3h-.2z"/><path id="Rectangle_1316" transform="matrix(.9969 -.07916 .07916 .9969 -1.0083 .4874)" class="st1" d="M5.6 10h.2v6h-.2z"/><path id="Rectangle_1317" transform="matrix(.9969 -.07916 .07916 .9969 -.9469 .5443)" class="st1" d="M6.3 9.4h.2V15h-.2z"/><path id="Rectangle_1318" transform="matrix(.9969 -.07916 .07916 .9969 -.8856 .6012)" class="st1" d="M7.1 8.8h.2v5.3h-.2z"/><path id="Rectangle_1319" transform="matrix(.9969 -.07916 .07916 .9969 -.8242 .6581)" class="st1" d="M7.8 8.2H8v5h-.2z"/><path id="Rectangle_1320" transform="matrix(.9969 -.07899 .07899 .9969 -.7612 .7134)" class="st1" d="M8.6 7.6h.2v4.7h-.2z"/><path id="Rectangle_1321" transform="matrix(.9969 -.07899 .07899 .9969 -.7 .7702)" class="st1" d="M9.3 7h.2v4.4h-.2z"/><path id="Rectangle_1322" transform="matrix(.9969 -.07916 .07916 .9969 -.64 .8288)" class="st1" d="M10.1 6.5h.2v4.1h-.2z"/><path id="Rectangle_1323" transform="matrix(.9969 -.07916 .07916 .9969 -.5785 .8856)" class="st1" d="M10.8 5.9h.2v3.7h-.2z"/><path id="Rectangle_1324" transform="matrix(.9969 -.07899 .07899 .9969 -.5161 .9405)" class="st1" d="M11.5 5.3h.2v3.4h-.2z"/><path id="Rectangle_1325" transform="matrix(.9969 -.07916 .07916 .9969 -.4558 .9994)" class="st1" d="M12.3 4.7h.2v3.1h-.2z"/><path id="Rectangle_1326" transform="matrix(.9969 -.07916 .07916 .9969 -.3943 1.0563)" class="st1" d="M13 4.1h.2v2.8H13z"/><path id="Rectangle_1327" transform="matrix(.9969 -.07899 .07899 .9969 -.3323 1.1108)" class="st1" d="M13.8 3.5h.2V6h-.2z"/><path id="Rectangle_1328" transform="matrix(.9969 -.07917 .07917 .9969 -.2716 1.1703)" class="st1" d="M14.5 2.9h.2V5h-.2z"/><path id="Rectangle_1329" transform="matrix(.9969 -.07917 .07917 .9969 -.2101 1.2272)" class="st1" d="M15.3 2.4h.2v1.8h-.2z"/><path id="Rectangle_1330" transform="matrix(.9969 -.07917 .07917 .9969 -.1487 1.2841)" class="st1" d="M16 1.8h.2v1.5H16z"/><path id="Rectangle_1331" transform="matrix(.9969 -.07899 .07899 .9969 -.08727759 1.3379)" class="st1" d="M16.8 1.2h.2v1.2h-.2z"/><path id="Rectangle_1332" transform="matrix(.9969 -.07919 .07919 .9969 -.02593033 1.3982)" class="st1" d="M17.5.6h.2v.9h-.2z"/><path id="Rectangle_1333" transform="matrix(.9969 -.0792 .0792 .9969 .03555284 1.4554)" class="st1" d="M18.3 0h.2v.5h-.2z"/></g></g></g></g></g></svg>