<svg id="Codurance_Logo_Dark" data-name="Codurance Logo Dark" xmlns="http://www.w3.org/2000/svg" width="124.999" height="17.454" viewBox="0 0 124.999 17.454">
  <path id="Path_647" data-name="Path 647" d="M189.208,56.339a19.022,19.022,0,0,1,.658,3.069,9.816,9.816,0,0,1,.025,2.306,5.073,5.073,0,0,1-.471,1.638,3.73,3.73,0,0,1-.376.6,3.3,3.3,0,0,1-.952.827,3.622,3.622,0,0,1-.54.249,4.04,4.04,0,0,1-1.135.23,5.51,5.51,0,0,1-1.044-.035,6.928,6.928,0,0,1-.776-.141c-.2-.05-.321-.092-.342-.1a8.509,8.509,0,0,0,2.438,1.454,4.542,4.542,0,0,0,2.117.277,3.467,3.467,0,0,0,1.693-.693,4.117,4.117,0,0,0,1.176-1.458,5.5,5.5,0,0,0,.4-1.075,6.754,6.754,0,0,0,.19-1.213,7.949,7.949,0,0,0-.038-1.321,8.478,8.478,0,0,0-.281-1.386,15.812,15.812,0,0,0-1.115-2.781,20.194,20.194,0,0,0-1.343-2.241c-.441-.638-.85-1.154-1.157-1.523s-.514-.59-.554-.629a36.53,36.53,0,0,1,1.43,3.938" transform="translate(-164.728 -51.501)" fill="#0c0c0d"/>
  <path id="Path_648" data-name="Path 648" d="M147.631,67.266a5.058,5.058,0,0,0-1.107.186,6.343,6.343,0,0,0-1.124.439,7.466,7.466,0,0,0-1.1.693,8.131,8.131,0,0,0-1.037.943,15.484,15.484,0,0,0-1.8,2.378,19.869,19.869,0,0,0-1.228,2.308c-.321.709-.555,1.328-.714,1.785s-.24.751-.255.8a35.956,35.956,0,0,1,2.622-3.234,18.39,18.39,0,0,1,2.273-2.117,9.058,9.058,0,0,1,1.941-1.172,4.806,4.806,0,0,1,1.625-.407,3.394,3.394,0,0,1,.7.034,3.151,3.151,0,0,1,.627.159,3.385,3.385,0,0,1,.553.268,3.684,3.684,0,0,1,.479.35,4.137,4.137,0,0,1,.763.891,5.921,5.921,0,0,1,.494.942,7.9,7.9,0,0,1,.269.759c.056.2.083.327.088.354a8.9,8.9,0,0,0,.011-2.89,4.8,4.8,0,0,0-.82-2.007,3.52,3.52,0,0,0-1.435-1.155,3.949,3.949,0,0,0-1.579-.317c-.082,0-.164,0-.247.007" transform="translate(-127.578 -63.697)" fill="#0c0c0d"/>
  <path id="Path_649" data-name="Path 649" d="M158.705,90.784a4.75,4.75,0,0,0-1.293,1.731,3.68,3.68,0,0,0-.26,1.847,4.21,4.21,0,0,0,.648,1.769,5.445,5.445,0,0,0,.712.889,6.294,6.294,0,0,0,.936.774,7.27,7.27,0,0,0,1.138.626,7.668,7.668,0,0,0,1.317.444,14.715,14.715,0,0,0,2.913.4,19.161,19.161,0,0,0,2.574-.067c.759-.07,1.4-.174,1.868-.262s.756-.16.808-.174a34.985,34.985,0,0,1-4.05-.705,17.774,17.774,0,0,1-2.931-.953,9.081,9.081,0,0,1-1.966-1.13,4.96,4.96,0,0,1-1.156-1.234,3.436,3.436,0,0,1-.5-1.27,3.223,3.223,0,0,1-.048-.622,3.644,3.644,0,0,1,.055-.6,4.407,4.407,0,0,1,.374-1.123,5.964,5.964,0,0,1,.551-.905,6.768,6.768,0,0,1,.511-.616c.141-.15.236-.239.254-.256a8.508,8.508,0,0,0-2.456,1.433" transform="translate(-142.326 -81.831)" fill="#0c0c0d"/>
  <path id="Path_650" data-name="Path 650" d="M84.718,80.711V83.06h-9.8a2.793,2.793,0,0,1-2.769-2.828V73.27a2.8,2.8,0,0,1,2.769-2.83h9.754v2.351H74.92a.478.478,0,0,0-.469.48v6.962a.479.479,0,0,0,.469.479Z" transform="translate(-72.151 -66.308)" fill="#0c0c0d"/>
  <path id="Path_651" data-name="Path 651" d="M250.985,47.375V64.127h-9.8a2.794,2.794,0,0,1-2.769-2.828V54.337a2.8,2.8,0,0,1,2.769-2.83h7.5V47.375Zm-2.768,14.4a.479.479,0,0,0,.469-.479V54.337a.479.479,0,0,0-.469-.48h-7.029a.477.477,0,0,0-.467.48V61.3a.478.478,0,0,0,.467.479Z" transform="translate(-209.458 -47.375)" fill="#0c0c0d"/>
  <path id="Path_652" data-name="Path 652" d="M333.327,70.44v9.792a2.793,2.793,0,0,1-2.769,2.828h-7.029a2.793,2.793,0,0,1-2.768-2.828V70.44h2.3v9.792a.478.478,0,0,0,.468.479h7.029a.476.476,0,0,0,.468-.479V70.44Z" transform="translate(-277.458 -66.308)" fill="#0c0c0d"/>
  <path id="Path_653" data-name="Path 653" d="M415.343,70.44v2.351h-6.9a.477.477,0,0,0-.467.479v9.79h-2.3V73.27a2.8,2.8,0,0,1,2.768-2.83Z" transform="translate(-347.581 -66.308)" fill="#0c0c0d"/>
  <path id="Path_654" data-name="Path 654" d="M481.5,73.269v9.79h-9.8a2.792,2.792,0,0,1-2.768-2.828V75.574H479.2V73.269a.479.479,0,0,0-.469-.479h-9.8V70.439h9.8a2.794,2.794,0,0,1,2.77,2.83m-2.3,4.654h-7.966v2.308a.477.477,0,0,0,.467.479h7.5Z" transform="translate(-399.819 -66.307)" fill="#0c0c0d"/>
  <path id="Path_655" data-name="Path 655" d="M564.2,73.27v9.79h-2.3V73.27a.477.477,0,0,0-.468-.479H554.4a.477.477,0,0,0-.468.479v9.79h-2.3V70.44h9.8a2.794,2.794,0,0,1,2.769,2.83" transform="translate(-468.118 -66.308)" fill="#0c0c0d"/>
  <path id="Path_656" data-name="Path 656" d="M647.019,80.711V83.06h-9.8a2.794,2.794,0,0,1-2.77-2.828V73.27a2.8,2.8,0,0,1,2.77-2.83h9.756v2.351h-9.756a.479.479,0,0,0-.469.48v6.962a.479.479,0,0,0,.469.479Z" transform="translate(-536.511 -66.308)" fill="#0c0c0d"/>
  <path id="Path_657" data-name="Path 657" d="M730.218,73.27v4.655H719.951v2.307a.479.479,0,0,0,.469.479h9.8V83.06h-9.8a2.794,2.794,0,0,1-2.77-2.828V73.27a2.8,2.8,0,0,1,2.77-2.83h7.029a2.794,2.794,0,0,1,2.768,2.83m-2.3,2.306V73.27a.477.477,0,0,0-.467-.48H720.42a.479.479,0,0,0-.469.48v2.306Z" transform="translate(-605.219 -66.308)" fill="#0c0c0d"/>
</svg>
