<svg xmlns="http://www.w3.org/2000/svg" width="120.047" height="30.242" viewBox="0 0 120.047 30.242">
  <g id="Group_2406" data-name="Group 2406" transform="translate(-239.953 -40.916)">
    <text id="compass" transform="translate(317 62)" fill="#101010" font-size="21" font-family="ProximaNova-Bold, Proxima Nova" font-weight="700"><tspan x="-42.073" y="0">compass</tspan></text>
    <g id="Heer" transform="translate(112.377 -153.709)">
      <g id="Group_2322" data-name="Group 2322" transform="translate(132.306 210.938)">
        <path id="Path_813" data-name="Path 813" d="M165.168,307.389a10.55,10.55,0,0,1-7.351-8.064c-.041-.216-.078-.455-.111-.73l.545-.065c.031.262.066.488.1.691a10,10,0,0,0,6.965,7.641Z" transform="translate(-157.707 -298.53)" fill="#0c0c0d"/>
      </g>
      <g id="Group_2323" data-name="Group 2323" transform="translate(127.576 194.625)">
        <path id="Path_814" data-name="Path 814" d="M142.7,224.867a15.121,15.121,0,1,1,10.142-26.334l.316.286-5.459,2.358-.119-.067a9.921,9.921,0,0,0-14.658,6.948c-.028.166-.054.35-.077.561l-.545-.061c.025-.222.052-.415.082-.592a10.47,10.47,0,0,1,15.349-7.4l4.42-1.91a14.572,14.572,0,1,0,1.618,20.567l-3.513-2.234a10.511,10.511,0,0,1-7.41,3.221l-.007-.549a9.825,9.825,0,0,0,7.171-3.211l.155-.169,4.425,2.813-.2.239A15.077,15.077,0,0,1,142.7,224.867Z" transform="translate(-127.576 -194.625)" fill="#0c0c0d"/>
      </g>
      <g id="Group_2324" data-name="Group 2324" transform="translate(131.918 197.273)">
        <path id="Path_815" data-name="Path 815" d="M182.306,212.366l-17.947,22.353-.619-7.79-.017-.218-.206-.072-7.379-2.57,26.168-11.7m1.13-.872-28.2,12.614,8.176,2.848.685,8.631,19.343-24.092Z" transform="translate(-155.231 -211.494)" fill="#0c0c0d"/>
      </g>
      <g id="Group_2326" data-name="Group 2326" transform="translate(140.135 197.64)">
        <g id="Group_2325" data-name="Group 2325" transform="translate(0 0)">
          <rect id="Rectangle_1308" data-name="Rectangle 1308" width="24.306" height="0.335" transform="translate(0 14.846) rotate(-37.645)" fill="#0c0c0d"/>
        </g>
      </g>
      <g id="Group_2329" data-name="Group 2329" transform="translate(140.186 198.508)">
        <g id="Group_2328" data-name="Group 2328" transform="translate(0 0)">
          <g id="Group_2327" data-name="Group 2327" transform="translate(0)">
            <rect id="Rectangle_1309" data-name="Rectangle 1309" width="0.167" height="8.193" transform="translate(0 14.109) rotate(-4.54)" fill="#0c0c0d"/>
            <rect id="Rectangle_1310" data-name="Rectangle 1310" width="0.167" height="7.874" transform="translate(0.761 13.521) rotate(-4.54)" fill="#0c0c0d"/>
            <rect id="Rectangle_1311" data-name="Rectangle 1311" width="0.167" height="7.556" transform="translate(1.522 12.934) rotate(-4.54)" fill="#0c0c0d"/>
            <rect id="Rectangle_1312" data-name="Rectangle 1312" width="0.167" height="7.237" transform="translate(2.282 12.347) rotate(-4.54)" fill="#0c0c0d"/>
            <rect id="Rectangle_1313" data-name="Rectangle 1313" width="0.167" height="6.918" transform="translate(3.043 11.759) rotate(-4.54)" fill="#0c0c0d"/>
            <rect id="Rectangle_1314" data-name="Rectangle 1314" width="0.167" height="6.6" transform="translate(3.804 11.172) rotate(-4.54)" fill="#0c0c0d"/>
            <rect id="Rectangle_1315" data-name="Rectangle 1315" width="0.167" height="6.281" transform="translate(4.565 10.585) rotate(-4.54)" fill="#0c0c0d"/>
            <rect id="Rectangle_1316" data-name="Rectangle 1316" width="0.167" height="5.963" transform="translate(5.325 9.997) rotate(-4.54)" fill="#0c0c0d"/>
            <rect id="Rectangle_1317" data-name="Rectangle 1317" width="0.167" height="5.644" transform="translate(6.086 9.41) rotate(-4.54)" fill="#0c0c0d"/>
            <rect id="Rectangle_1318" data-name="Rectangle 1318" width="0.167" height="5.326" transform="translate(6.847 8.823) rotate(-4.54)" fill="#0c0c0d"/>
            <rect id="Rectangle_1319" data-name="Rectangle 1319" width="0.167" height="5.007" transform="translate(7.608 8.236) rotate(-4.54)" fill="#0c0c0d"/>
            <rect id="Rectangle_1320" data-name="Rectangle 1320" width="0.167" height="4.689" transform="matrix(0.997, -0.079, 0.079, 0.997, 8.368, 7.648)" fill="#0c0c0d"/>
            <rect id="Rectangle_1321" data-name="Rectangle 1321" width="0.167" height="4.37" transform="matrix(0.997, -0.079, 0.079, 0.997, 9.129, 7.061)" fill="#0c0c0d"/>
            <rect id="Rectangle_1322" data-name="Rectangle 1322" width="0.167" height="4.052" transform="translate(9.89 6.474) rotate(-4.54)" fill="#0c0c0d"/>
            <rect id="Rectangle_1323" data-name="Rectangle 1323" width="0.167" height="3.733" transform="translate(10.651 5.886) rotate(-4.54)" fill="#0c0c0d"/>
            <rect id="Rectangle_1324" data-name="Rectangle 1324" width="0.167" height="3.414" transform="matrix(0.997, -0.079, 0.079, 0.997, 11.412, 5.299)" fill="#0c0c0d"/>
            <rect id="Rectangle_1325" data-name="Rectangle 1325" width="0.167" height="3.096" transform="translate(12.172 4.712) rotate(-4.54)" fill="#0c0c0d"/>
            <rect id="Rectangle_1326" data-name="Rectangle 1326" width="0.167" height="2.777" transform="translate(12.933 4.124) rotate(-4.54)" fill="#0c0c0d"/>
            <rect id="Rectangle_1327" data-name="Rectangle 1327" width="0.167" height="2.459" transform="matrix(0.997, -0.079, 0.079, 0.997, 13.694, 3.537)" fill="#0c0c0d"/>
            <rect id="Rectangle_1328" data-name="Rectangle 1328" width="0.167" height="2.14" transform="translate(14.455 2.95) rotate(-4.541)" fill="#0c0c0d"/>
            <rect id="Rectangle_1329" data-name="Rectangle 1329" width="0.167" height="1.822" transform="translate(15.215 2.362) rotate(-4.541)" fill="#0c0c0d"/>
            <rect id="Rectangle_1330" data-name="Rectangle 1330" width="0.167" height="1.503" transform="translate(15.976 1.775) rotate(-4.541)" fill="#0c0c0d"/>
            <rect id="Rectangle_1331" data-name="Rectangle 1331" width="0.167" height="1.185" transform="matrix(0.997, -0.079, 0.079, 0.997, 16.737, 1.188)" fill="#0c0c0d"/>
            <rect id="Rectangle_1332" data-name="Rectangle 1332" width="0.167" height="0.866" transform="translate(17.498 0.601) rotate(-4.542)" fill="#0c0c0d"/>
            <rect id="Rectangle_1333" data-name="Rectangle 1333" width="0.167" height="0.548" transform="translate(18.258 0.013) rotate(-4.543)" fill="#0c0c0d"/>
          </g>
        </g>
      </g>
    </g>
  </g>
</svg>
