<?xml version="1.0" encoding="utf-8"?>
<!-- Generator: Adobe Illustrator 25.2.0, SVG Export Plug-In . SVG Version: 6.00 Build 0)  -->
<svg version="1.1" id="Layer_1" xmlns="http://www.w3.org/2000/svg" xmlns:xlink="http://www.w3.org/1999/xlink" x="0px" y="0px"
	 viewBox="0 0 564.7 741" style="enable-background:new 0 0 564.7 741;" xml:space="preserve">
<style type="text/css">
	.st0{opacity:0.24;}
	.st1{fill:#E8E8EB;}
	.st2{fill:#F2F2F3;}
	.st3{fill:#F3F6FD;}
	.st4{opacity:0.41;}
	.st5{opacity:0.27;fill:url(#Path_890_1_);enable-background:new    ;}
	.st6{opacity:0.22;}
	.st7{clip-path:url(#SVGID_2_);}
	.st8{opacity:0.32;}
	.st9{fill:none;}
	.st10{opacity:0.59;fill:url(#Path_889_1_);enable-background:new    ;}
	.st11{opacity:0.66;}
	.st12{opacity:0.93;}
	.st13{fill:none;stroke:#4471D7;stroke-width:4;}
	.st14{fill:#FFFFFF;}
	.st15{fill:none;stroke:#4677E5;stroke-width:4;stroke-linecap:round;stroke-linejoin:round;}
	.st16{fill:#BDBDC2;}
	.st17{font-family:'ProximaNova-Extrabld';}
	.st18{font-size:25.7px;}
	.st19{letter-spacing:-3;}
	.st20{font-family:'ProximaNova-Bold';}
	.st21{font-size:17.14px;}
</style>
<g class="st0">
	<image style="overflow:visible;" width="535" height="667" xlink:href="B5F420CA142A6FE8.png"  transform="matrix(1 0 0 1 41 86)">
	</image>
</g>
<g id="Group_2476">
	<g id="Group_2475">
		
			<rect id="Rectangle_1408-2" x="37.3" y="177.2" transform="matrix(1.605631e-02 -0.9999 0.9999 1.605631e-02 -67.4673 675.3544)" class="st1" width="544.2" height="389.6"/>
		
			<rect id="Rectangle_1409-2" x="91.5" y="87.6" transform="matrix(0.9998 -1.902294e-02 1.902294e-02 0.9998 -7.0409 5.6973)" class="st2" width="408.8" height="570.6"/>
		
			<rect id="Rectangle_1401-2" x="58.9" y="69.6" transform="matrix(0.9985 -5.390453e-02 5.390453e-02 0.9985 -20.0432 15.5491)" class="st3" width="438.7" height="619.5"/>
		<g id="Group_2470" class="st4">
			
				<linearGradient id="Path_890_1_" gradientUnits="userSpaceOnUse" x1="-29.4903" y1="0.6018" x2="-30.1403" y2="1.2418" gradientTransform="matrix(508.96 -27.44 28.36 525.89 15226.0225 -901.6801)">
				<stop  offset="0.23" style="stop-color:#1CD6B6;stop-opacity:0"/>
				<stop  offset="0.35" style="stop-color:#1CD6B6;stop-opacity:0.11"/>
				<stop  offset="1" style="stop-color:#269EEF"/>
			</linearGradient>
			<path id="Path_890" class="st5" d="M286.8,520.6L480.5,58.3L44.5,81.8L286.8,520.6z"/>
			<g id="Group_2469" class="st6">
				<g>
					<defs>
						
							<rect id="SVGID_1_" x="50.8" y="69.9" transform="matrix(0.9985 -5.390453e-02 5.390453e-02 0.9985 -12.8661 14.944)" width="439.5" height="352.1"/>
					</defs>
					<clipPath id="SVGID_2_">
						<use xlink:href="#SVGID_1_"  style="overflow:visible;"/>
					</clipPath>
					<g class="st7">
						<g id="Group_2468">
							<g id="Group_2467" class="st8">
								
									<image style="overflow:visible;enable-background:new    ;" width="2821" height="3007" id="Rectangle_1402" xlink:href="B5F420CA142A6FE9.png"  transform="matrix(0.18 -1.000000e-02 1.000000e-02 0.18 -116.29 -137.6)">
								</image>
							</g>
							
								<rect id="Rectangle_1403" x="51.6" y="-39.8" transform="matrix(0.9985 -5.390453e-02 5.390453e-02 0.9985 -5.2971 13.5826)" class="st9" width="395" height="289.6"/>
						</g>
					</g>
				</g>
			</g>
		</g>
		
			<linearGradient id="Path_889_1_" gradientUnits="userSpaceOnUse" x1="-29.414" y1="0.3196" x2="-29.414" y2="1.1696" gradientTransform="matrix(422.91 -22.8 22.8 422.91 12703.873 -543.7565)">
			<stop  offset="0" style="stop-color:#1CD8B4"/>
			<stop  offset="1" style="stop-color:#5557F6"/>
		</linearGradient>
		<path id="Path_889" class="st10" d="M271.5,259.6C371.6,254.2,457.1,331,462.5,431c5.4,100.1-71.4,185.5-171.4,190.9
			c-100.1,5.4-185.5-71.4-190.9-171.4C94.8,350.5,171.5,265,271.5,259.6z"/>
		<g id="Group_2464" class="st11">
			<g id="Group_2459" class="st12">
				<g id="Group_2359">
					<line id="Line_101" class="st13" x1="180.6" y1="427.4" x2="174.9" y2="321.4"/>
					<path id="Path_856" class="st13" d="M158.7,338.6l16.2-18l18,16.2"/>
					<g id="Ellipse_304">
						
							<ellipse transform="matrix(0.8366 -0.5478 0.5478 0.8366 -186.0087 172.9228)" class="st9" cx="196.9" cy="398.3" rx="18.2" ry="9.1"/>
						
							<ellipse transform="matrix(0.8378 -0.546 0.546 0.8378 -185.8003 170.9611)" class="st13" cx="194.8" cy="398.2" rx="16.4" ry="7.4"/>
					</g>
					<g id="Ellipse_305">
						
							<ellipse transform="matrix(0.4526 -0.8917 0.8917 0.4526 -252.1839 355.1364)" class="st9" cx="163.2" cy="383" rx="9.1" ry="18.1"/>
						
							<ellipse transform="matrix(0.4526 -0.8917 0.8917 0.4526 -252.1839 355.1364)" class="st13" cx="163.2" cy="383" rx="7.4" ry="16.4"/>
					</g>
					<g id="Ellipse_306">
						
							<ellipse transform="matrix(0.8378 -0.546 0.546 0.8378 -167.6636 164.4859)" class="st9" cx="193" cy="364.4" rx="18.1" ry="9.1"/>
						
							<ellipse transform="matrix(0.8378 -0.546 0.546 0.8378 -167.6636 164.4859)" class="st13" cx="193" cy="364.4" rx="16.4" ry="7.4"/>
					</g>
				</g>
			</g>
			<g id="Group_2460" class="st12">
				<path id="Path_828" class="st14" d="M323.8,366.6c-1.2-0.6-2.7-0.2-3.3,1l0,0c-3.1,6-7.6,11-13.2,14.7c-1.1,0.7-1.5,2.3-0.7,3.4
					s2.3,1.5,3.4,0.7l0,0c6.3-4.1,11.5-9.8,14.9-16.5C325.5,368.7,325,367.2,323.8,366.6z"/>
				<path id="Path_829" class="st14" d="M303.6,315.7c6.1,3.1,11.3,7.8,15,13.5c0.7,1.1,2.2,1.5,3.4,0.8c1.1-0.7,1.5-2.2,0.8-3.4
					l0,0l0,0c-4.2-6.5-10-11.7-16.9-15.2c-1.2-0.5-2.7,0-3.2,1.3C302.1,313.8,302.6,315.1,303.6,315.7L303.6,315.7z"/>
				<path id="Path_830" class="st14" d="M248.6,334c1.2,0.6,2.7,0.1,3.3-1.1c0,0,0,0,0,0c3.1-6.1,7.7-11.3,13.5-15.1
					c1.1-0.7,1.5-2.3,0.7-3.4c-0.7-1.1-2.3-1.5-3.4-0.7l0,0c-6.5,4.2-11.7,10.1-15.2,17C246.9,331.9,247.4,333.4,248.6,334
					C248.6,334,248.6,334,248.6,334L248.6,334z"/>
				<path id="Path_831" class="st14" d="M269,384.4c-6-3-11.1-7.6-14.8-13.2c-0.7-1.1-2.3-1.4-3.4-0.7c-1.1,0.7-1.4,2.3-0.7,3.4
					c4.2,6.3,9.9,11.5,16.7,14.9c1.2,0.5,2.7,0,3.2-1.3C270.5,386.4,270.1,385,269,384.4z"/>
				<path id="Subtraction_3" class="st14" d="M299.2,320.2l-30,1.6c-0.5-8.3,5.8-15.4,14.1-15.9c8.3-0.5,15.4,5.8,15.9,14.1
					C299.2,320.1,299.2,320.2,299.2,320.2L299.2,320.2z"/>
				<circle id="Ellipse_286" class="st14" cx="283" cy="298.6" r="7.5"/>
				<path id="Subtraction_4" class="st14" d="M303.9,407.5l-30,1.6c-0.5-8.3,5.8-15.4,14.1-15.9s15.4,5.8,15.9,14.1
					C303.9,407.3,303.9,407.4,303.9,407.5L303.9,407.5z"/>
				<circle id="Ellipse_287" class="st14" cx="287.7" cy="385.8" r="7.5"/>
				<path id="Subtraction_5" class="st14" d="M345.2,361.6l-30,1.6c-0.5-8.3,5.8-15.4,14.1-15.9s15.4,5.8,15.9,14.1
					C345.2,361.5,345.2,361.6,345.2,361.6L345.2,361.6z"/>
				<circle id="Ellipse_288" class="st14" cx="329" cy="340" r="7.5"/>
				<path id="Subtraction_6" class="st14" d="M258.7,366.3l-30,1.6c-0.5-8.3,5.8-15.4,14.1-15.9s15.4,5.8,15.9,14.1
					C258.7,366.1,258.7,366.2,258.7,366.3L258.7,366.3z"/>
				<circle id="Ellipse_289" class="st14" cx="242.5" cy="344.6" r="7.5"/>
			</g>
			<g id="Group_2461" class="st12">
				<path id="Path_833" class="st14" d="M366.9,430.8c-11.7,0.6-21.7-8.8-22.4-21s8.3-22.7,20-23.3c9.8-0.5,18.5,6.1,21.4,15.5
					l-3.9,0.2l7,10.8l5.8-11.5l-5.2,0.3c-3.1-11.4-13.5-19.6-25.3-18.9c-13.7,0.7-24.2,12.9-23.4,27.1s12.5,25.2,26.2,24.5
					c5.2-0.3,10.1-2.2,14.1-5.5l-2.3-2.8C375.5,429,371.3,430.6,366.9,430.8z"/>
				<path id="Path_834" class="st14" d="M398.1,381.1c-5.1,0.3-10,2.2-13.9,5.4l2.3,2.8c3.3-2.8,7.5-4.4,11.8-4.6
					c11.6-0.6,21.5,8.7,22.1,20.8s-8.2,22.5-19.8,23.1c-9.7,0.5-18.3-6-21.1-15.3l3.9-0.2l-7-10.8l-5.8,11.5l5.2-0.3
					c3.1,11.3,13.3,19.3,25.1,18.7c13.6-0.7,24-12.8,23.2-26.9S411.6,380.4,398.1,381.1z"/>
			</g>
			<g id="Group_2462" class="st12">
				<path id="Path_857" class="st14" d="M206.6,417.2c-1.7,0.1-3,1.6-2.9,3.4c0.1,1.7,1.6,3,3.3,2.9c35.8-2,66.5,25.4,68.5,61.3
					s-25.4,66.5-61.3,68.5c-7.1,0.4-14.3-0.4-21.2-2.3c-2.6-18-0.6-30.7,6.3-38.7c6.4-7.4,17.2-11.4,33.9-12.4l-3,2.4
					c-1.3,1.2-1.4,3.1-0.2,4.4c1.1,1.2,2.9,1.4,4.2,0.4l0,0l10.3-8.3c0.1-0.1,0.3-0.2,0.4-0.4c0.2-0.3,0.4-0.6,0.6-0.9
					c0.5-1.2,0.2-2.6-0.8-3.5c-0.1-0.1-0.3-0.2-0.5-0.3l-11.1-7.1c-1.5-0.9-3.4-0.5-4.3,0.9c-0.9,1.5-0.5,3.4,0.9,4.3l0,0l2.8,1.8
					c-18.3,1.1-30.5,5.8-38,14.5c-7.6,8.9-10.2,22.3-8.1,40.5c-7.7-3.1-14.7-7.6-20.7-13.2c-4.8-30.5,9.3-48.8,44.3-57.4l-1.8,2
					c-1.1,1.3-1,3.3,0.3,4.4c1.3,1.1,3.1,1,4.3-0.2l0,0l8.9-9.7c0.1-0.1,0.3-0.3,0.4-0.5c0.5-0.7,0.6-1.5,0.5-2.4
					c-0.1-0.5-0.3-0.9-0.6-1.2c-0.2-0.3-0.5-0.5-0.8-0.7c-0.2-0.1-0.3-0.2-0.5-0.3l-12-5.4c-1.6-0.7-3.4,0-4.1,1.6
					c-0.7,1.6,0,3.4,1.6,4.1l0,0l4,1.8c-35.4,8.3-52.7,27.1-51.4,55.9c-3.3-4.4-6.1-9.2-8.2-14.3c-1.4-30.8,16.4-43.5,34.7-52.9
					l-1.8,3.8c-0.7,1.6,0,3.4,1.5,4.2l0,0c0.5,0.2,1,0.3,1.5,0.3c1.2-0.1,2.2-0.8,2.7-1.8l5.4-11.7c0.6-0.9,0.7-2,0.2-3
					c0-0.1-0.1-0.1-0.1-0.2c0,0,0-0.1,0-0.1c-0.1-0.1-0.1-0.2-0.2-0.3c-0.2-0.2-0.3-0.4-0.5-0.6c-0.1,0-0.1-0.1-0.2-0.2
					c-0.3-0.2-0.6-0.4-1-0.5c-0.2-0.1-0.4-0.1-0.6-0.1L179,449c-1.7-0.2-3.2,1-3.4,2.7c0,0,0,0,0,0c0,0,0,0.1,0,0.1
					c-0.2,1.7,1,3.3,2.7,3.5c0,0,0,0,0,0l0,0l2.8,0.3c-15,7.9-30.3,18.4-35.3,39.2c-0.1-0.9-0.2-1.9-0.3-2.8
					c-0.9-16.8,4.7-33.3,15.7-46l-0.1,4.3c-0.1,1.7,1.3,3.2,3,3.2c1.7,0.1,3.2-1.3,3.2-3l0.4-13.2c0-0.2,0-0.4-0.1-0.5
					c0-0.1,0-0.3,0-0.5s0,0-0.1-0.1c-0.1-0.2-0.2-0.4-0.3-0.6c-0.1-0.1-0.2-0.3-0.3-0.4c-0.2-0.2-0.3-0.3-0.5-0.4
					c-0.1-0.1-0.3-0.2-0.4-0.3c-0.2-0.1-0.4-0.1-0.6-0.2c-0.2-0.1-0.4-0.1-0.5-0.1c0,0-0.1,0-0.1,0c-0.2,0-0.4,0.1-0.6,0.1
					c-0.1,0-0.3,0-0.4,0l-12.7,3.8c-1.7,0.4-2.7,2.1-2.3,3.8c0.4,1.7,2.1,2.7,3.8,2.3c0.1,0,0.2,0,0.2-0.1l2.6-0.8
					c-16.7,20.1-21,47.7-11.2,71.9c0.1,0.4,0.2,0.7,0.4,1c3.6,8.5,8.7,16.2,15.2,22.7c0.3,0.5,0.7,1,1.2,1.2
					c28.5,27.1,73.5,26.1,100.7-2.4c27.1-28.5,26.1-73.5-2.4-100.7C245.4,423.3,226.2,416.2,206.6,417.2z"/>
			</g>
			<g id="Group_2463" class="st12">
				<g id="Group_2357">
					<path id="Path_847" class="st15" d="M252,572.6l-4.3-79.6c0,0-3.2-43.1,47.9-45.9s55.8,44.5,55.8,44.5l18.2,35.8l-16.2,0.9
						l1.7,31c0,0,1.4,12.1-13.9,12.9"/>
					<path id="Path_848" class="st15" d="M414.2,524.6l-4.3-79.5c0,0-1.5-43.2-52.6-40.5s-50.6,50.3-50.6,50.3l-14.2,37.6l16.2-0.9
						l1.7,31c0,0-0.1,12.2,15.2,11.3"/>
				</g>
			</g>
		</g>
		<g id="Your_personalised_software_delivery_maturity_report">
			<text transform="matrix(0.9985 -5.390453e-02 5.390453e-02 0.9985 104.57 189.22)" class="st16 st17 st18 st19">Y</text>
			<text transform="matrix(0.9985 -5.390453e-02 5.390453e-02 0.9985 118.2501 188.4815)" class="st16 st17 st18">our personalised software</text>
			<text transform="matrix(0.9985 -5.390453e-02 5.390453e-02 0.9985 126.48 219.78)" class="st16 st17 st18">delivery maturity report</text>
		</g>
		<g id="Group_2466">
			<g id="Group_2465">
				<g id="compass">
					<text transform="matrix(0.9985 -5.390453e-02 5.390453e-02 0.9985 105.72 125.66)" class="st16 st20 st21">compass</text>
				</g>
				<g id="Heer">
					<g id="Group_2322">
						<path id="Path_813" class="st16" d="M85.3,130.9c-3.3-0.8-5.8-3.3-6.7-6.6c0-0.2-0.1-0.4-0.1-0.6l0.5-0.1
							c0,0.2,0.1,0.4,0.1,0.6c0.8,3.1,3.2,5.5,6.3,6.2L85.3,130.9z"/>
					</g>
					<g id="Group_2323">
						<path id="Path_814" class="st16" d="M88.1,135.1c-7.2,0.4-13.3-5.1-13.7-12.3s5.1-13.3,12.3-13.7c3.2-0.2,6.4,0.9,8.9,2.9
							l0.3,0.2l-4.6,2.3l-0.1-0.1c-4.2-2.1-9.3-0.4-11.4,3.8c0,0,0,0,0,0c-0.4,0.9-0.7,1.8-0.8,2.8c0,0.1,0,0.3,0,0.5h-0.5
							c0-0.2,0-0.4,0-0.5c0.6-4.9,5.1-8.5,10-7.9c0,0,0,0,0,0c1,0.1,2,0.4,2.8,0.8l3.7-1.8c-5.5-4.2-13.4-3.1-17.6,2.4
							c-4.2,5.5-3.1,13.4,2.4,17.6c5.5,4.2,13.3,3.1,17.6-2.3l-3.1-1.7c-1.6,1.8-3.8,2.9-6.2,3.1v-0.5c2.3-0.2,4.5-1.3,6-3.1
							l0.1-0.2l3.9,2.2l-0.2,0.2C95.5,132.9,91.9,134.9,88.1,135.1z"/>
					</g>
					<g id="Group_2324">
						<path id="Path_815" class="st16" d="M100.8,111.4l-14.4,20l-0.9-6.7v-0.2l-0.2-0.1l-6.4-1.9L100.8,111.4 M101.8,110.5
							l-23.7,12.2l7.2,2.1l1,7.4L101.8,110.5z"/>
					</g>
					<g id="Group_2326">
						<g id="Group_2325">
							
								<rect id="Rectangle_1308" x="82.8" y="117.7" transform="matrix(0.7578 -0.6525 0.6525 0.7578 -54.296 89.4175)" class="st16" width="20.9" height="0.3"/>
						</g>
					</g>
					<g id="Group_2329">
						<g id="Group_2328">
							<g id="Group_2327">
								
									<rect id="Rectangle_1309" x="85.8" y="124.6" transform="matrix(0.9911 -0.1328 0.1328 0.9911 -16.2547 12.5368)" class="st16" width="0.1" height="7"/>
								
									<rect id="Rectangle_1310" x="86" y="124.2" transform="matrix(0.9915 -0.1302 0.1302 0.9915 -15.8764 12.2874)" class="st16" width="0.1" height="6.8"/>
								
									<rect id="Rectangle_1311" x="87" y="123.5" transform="matrix(0.9911 -0.1328 0.1328 0.9911 -16.064 12.6867)" class="st16" width="0.1" height="6.5"/>
								
									<rect id="Rectangle_1312" x="87.6" y="123" transform="matrix(0.9911 -0.1328 0.1328 0.9911 -15.9676 12.7622)" class="st16" width="0.1" height="6.2"/>
								
									<rect id="Rectangle_1313" x="88.2" y="122.5" transform="matrix(0.9911 -0.1328 0.1328 0.9911 -15.8733 12.8366)" class="st16" width="0.1" height="5.9"/>
								
									<rect id="Rectangle_1314" x="88.8" y="121.9" transform="matrix(0.9911 -0.1328 0.1328 0.9911 -15.7778 12.9109)" class="st16" width="0.1" height="5.7"/>
								
									<rect id="Rectangle_1315" x="89.5" y="121.4" transform="matrix(0.9911 -0.1328 0.1328 0.9911 -15.6841 12.9854)" class="st16" width="0.1" height="5.4"/>
								
									<rect id="Rectangle_1316" x="90.1" y="120.9" transform="matrix(0.9911 -0.1328 0.1328 0.9911 -15.5884 13.061)" class="st16" width="0.1" height="5.1"/>
								
									<rect id="Rectangle_1317" x="90.7" y="120.3" transform="matrix(0.9911 -0.1328 0.1328 0.9911 -15.4934 13.1353)" class="st16" width="0.1" height="4.8"/>
								
									<rect id="Rectangle_1318" x="91.3" y="119.8" transform="matrix(0.9911 -0.1328 0.1328 0.9911 -15.398 13.2096)" class="st16" width="0.1" height="4.6"/>
								
									<rect id="Rectangle_1319" x="91.4" y="119.4" transform="matrix(0.9915 -0.1302 0.1302 0.9915 -15.0408 12.9487)" class="st16" width="0.1" height="4.3"/>
								
									<rect id="Rectangle_1320" x="92.5" y="118.7" transform="matrix(0.9912 -0.1326 0.1326 0.9912 -15.1884 13.3409)" class="st16" width="0.1" height="4"/>
								
									<rect id="Rectangle_1321" x="93.1" y="118.2" transform="matrix(0.9912 -0.1326 0.1326 0.9912 -15.0955 13.4155)" class="st16" width="0.1" height="3.8"/>
								
									<rect id="Rectangle_1322" x="93.7" y="117.6" transform="matrix(0.9911 -0.1328 0.1328 0.9911 -15.0179 13.5097)" class="st16" width="0.1" height="3.5"/>
								
									<rect id="Rectangle_1323" x="94.3" y="117.1" transform="matrix(0.9911 -0.1328 0.1328 0.9911 -14.9238 13.5828)" class="st16" width="0.1" height="3.2"/>
								
									<rect id="Rectangle_1324" x="94.9" y="116.5" transform="matrix(0.9912 -0.1326 0.1326 0.9912 -14.8098 13.6381)" class="st16" width="0.1" height="2.9"/>
								
									<rect id="Rectangle_1325" x="95.1" y="116.1" transform="matrix(0.9915 -0.1302 0.1302 0.9915 -14.4838 13.3903)" class="st16" width="0.1" height="2.7"/>
								
									<rect id="Rectangle_1326" x="95.7" y="115.6" transform="matrix(0.9915 -0.1302 0.1302 0.9915 -14.3904 13.4648)" class="st16" width="0.1" height="2.4"/>
								
									<rect id="Rectangle_1327" x="96.8" y="114.9" transform="matrix(0.9912 -0.1326 0.1326 0.9912 -14.5258 13.8637)" class="st16" width="0.1" height="2.1"/>
								
									<rect id="Rectangle_1328" x="97.4" y="114.4" transform="matrix(0.9911 -0.1328 0.1328 0.9911 -14.4482 13.9572)" class="st16" width="0.1" height="1.8"/>
								
									<rect id="Rectangle_1329" x="98" y="113.9" transform="matrix(0.9911 -0.1328 0.1328 0.9911 -14.3539 14.0316)" class="st16" width="0.1" height="1.6"/>
								
									<rect id="Rectangle_1330" x="98.6" y="113.3" transform="matrix(0.9911 -0.1328 0.1328 0.9911 -14.2575 14.1071)" class="st16" width="0.1" height="1.3"/>
								
									<rect id="Rectangle_1331" x="99.2" y="112.8" transform="matrix(0.9912 -0.1326 0.1326 0.9912 -14.1459 14.162)" class="st16" width="0.1" height="1"/>
								
									<rect id="Rectangle_1332" x="99.8" y="112.2" transform="matrix(0.9911 -0.1328 0.1328 0.9911 -14.0669 14.2556)" class="st16" width="0.1" height="0.7"/>
								
									<rect id="Rectangle_1333" x="100.4" y="111.7" transform="matrix(0.9911 -0.1328 0.1328 0.9911 -13.9741 14.3303)" class="st16" width="0.1" height="0.5"/>
							</g>
						</g>
					</g>
				</g>
			</g>
		</g>
	</g>
</g>
</svg>
