<svg id="Layer_1" data-name="Layer 1" xmlns="http://www.w3.org/2000/svg" viewBox="0 0 100 100">
  <defs>
    <style>
      .cls-5{fill:#62626a}.cls-4{letter-spacing:0}
    </style>
  </defs>
  <g id="crossFunctionalTeams">
    <g id="Cross_Functional_Teams" data-name="Cross Functional Teams">
      <g id="background-2">
        <circle cx="50" cy="50.19" r="50" fill="#fff"/>
        <circle cx="50" cy="50.19" r="48.5" fill="none" stroke="#269eef" stroke-width="3"/>
      </g>
    </g>
    <text transform="translate(36.87 62.8)" style="isolation:isolate" fill="#62626a" font-size="10" font-family="ProximaNova-Regular,Proxima Nova" letter-spacing="-.11em">
      T<tspan class="cls-4" x="4.58" y="0">eam </tspan><tspan class="cls-4"><tspan x="-16.09" y="12">Effectiveness</tspan></tspan>
    </text>
    <g id="Group_2233" data-name="Group 2233">
      <path id="Path_821" data-name="Path 821" class="cls-5" d="M58.64 36.32a.57.57 0 00-.79.2 9.18 9.18 0 01-3.3 3.28.58.58 0 00.58 1 10.23 10.23 0 003.72-3.7.57.57 0 00-.21-.78z"/>
      <path id="Path_822" data-name="Path 822" class="cls-5" d="M54.54 24.09a9.13 9.13 0 013.36 3.37.57.57 0 00.77.27.58.58 0 00.27-.78 10.24 10.24 0 00-3.79-3.8.58.58 0 00-.57 1z"/>
      <path id="Path_823" data-name="Path 823" class="cls-5" d="M45 23.07a10.19 10.19 0 00-3.79 3.81.57.57 0 00.21.78.6.6 0 00.29.08.57.57 0 00.5-.29 9 9 0 013.37-3.38.58.58 0 00.21-.79.57.57 0 00-.76-.23z"/>
      <path id="Path_824" data-name="Path 824" class="cls-5" d="M45.51 39.82a9.21 9.21 0 01-3.32-3.3.58.58 0 00-1 .58 10.37 10.37 0 003.75 3.72.58.58 0 00.57-1z"/>
      <path id="Path_825" data-name="Path 825" class="cls-5" d="M50.17 21.54a1.77 1.77 0 10-.54 0 3.52 3.52 0 00-3.26 3.57h7.08V25a3.54 3.54 0 00-3.28-3.46z"/>
      <path id="Path_826" data-name="Path 826" class="cls-5" d="M50.18 42.12a1.78 1.78 0 10-.55 0 3.53 3.53 0 00-3.26 3.57h7.08v-.11a3.53 3.53 0 00-3.27-3.46z"/>
      <path id="Path_827" data-name="Path 827" class="cls-5" d="M60.48 31.86a1.77 1.77 0 10-.55 0 3.54 3.54 0 00-3.26 3.57h7.08v-.11a3.52 3.52 0 00-3.27-3.46z"/>
      <path id="Path_828" data-name="Path 828" class="cls-5" d="M43.33 35.32a3.52 3.52 0 00-3.27-3.46 1.77 1.77 0 10-.54 0 3.53 3.53 0 00-3.26 3.57h7.07z"/>
    </g>
  </g>
</svg>
