<?xml version="1.0" encoding="utf-8"?>
<!-- Generator: Adobe Illustrator 23.0.6, SVG Export Plug-In . SVG Version: 6.00 Build 0)  -->
<svg version="1.1" id="Layer_1" xmlns="http://www.w3.org/2000/svg" xmlns:xlink="http://www.w3.org/1999/xlink" x="0px" y="0px"
	 viewBox="0 0 12.8 9.6" style="enable-background:new 0 0 12.8 9.6;" xml:space="preserve">
<style type="text/css">
	.st0{fill:#61C0BB;}
</style>
<path class="st0" d="M6.4,6.4c0.58,0.01,1.41-0.73,1.83-1.04c3.32-2.41,3.57-2.62,4.34-3.22c0.15-0.11,0.23-0.29,0.23-0.47V1.2
	c0-0.66-0.54-1.2-1.2-1.2H1.2C0.54,0,0,0.54,0,1.2v0.47c0,0.18,0.09,0.36,0.23,0.47c0.76,0.6,1.02,0.81,4.33,3.22
	C4.98,5.67,5.82,6.41,6.4,6.4 M12.56,3.17c0.1-0.08,0.24,0,0.24,0.12V8.4c0,0.66-0.54,1.2-1.2,1.2H1.2C0.54,9.6,0,9.06,0,8.4V3.29
	c0-0.12,0.14-0.2,0.24-0.12C0.8,3.61,1.55,4.16,4.1,6.01C4.62,6.4,5.51,7.21,6.4,7.2c0.89,0.01,1.8-0.82,2.31-1.19
	C11.26,4.16,12,3.61,12.56,3.17"/>
</svg>
